<?xml version="1.0" encoding="UTF-8" standalone="no"?>
<!-- Created with Inkscape (http://www.inkscape.org/) -->

<svg
   width="237.45033mm"
   height="61.200214mm"
   viewBox="0 0 237.45033 61.200214"
   version="1.1"
   id="svg8"
   inkscape:version="1.1.1 (3bf5ae0, 2021-09-20)"
   sodipodi:docname="Logo_HAW_white.svg"
   xmlns:inkscape="http://www.inkscape.org/namespaces/inkscape"
   xmlns:sodipodi="http://sodipodi.sourceforge.net/DTD/sodipodi-0.dtd"
   xmlns="http://www.w3.org/2000/svg"
   xmlns:svg="http://www.w3.org/2000/svg"
   xmlns:rdf="http://www.w3.org/1999/02/22-rdf-syntax-ns#"
   xmlns:cc="http://creativecommons.org/ns#"
   xmlns:dc="http://purl.org/dc/elements/1.1/">
  <defs
     id="defs2" />
  <sodipodi:namedview
     id="base"
     pagecolor="#ffffff"
     bordercolor="#666666"
     borderopacity="1.0"
     inkscape:pageopacity="0.0"
     inkscape:pageshadow="2"
     inkscape:zoom="1.4"
     inkscape:cx="466.42857"
     inkscape:cy="43.214285"
     inkscape:document-units="mm"
     inkscape:current-layer="layer1"
     showgrid="false"
     fit-margin-top="0"
     fit-margin-left="0"
     fit-margin-right="0"
     fit-margin-bottom="0"
     inkscape:window-width="1848"
     inkscape:window-height="1016"
     inkscape:window-x="72"
     inkscape:window-y="27"
     inkscape:window-maximized="1"
     inkscape:pagecheckerboard="0" />
  <metadata
     id="metadata5">
    <rdf:RDF>
      <cc:Work
         rdf:about="">
        <dc:format>image/svg+xml</dc:format>
        <dc:type
           rdf:resource="http://purl.org/dc/dcmitype/StillImage" />
      </cc:Work>
    </rdf:RDF>
  </metadata>
  <g
     inkscape:label="Ebene 1"
     inkscape:groupmode="layer"
     id="layer1"
     transform="translate(0,-235.04979)">
    <rect
       id="rect21"
       width="45"
       height="4"
       x="0"
       y="235.20001"
       style="fill:#ffffff;fill-opacity:1;stroke-width:0.26211035" />
    <rect
       id="rect21-2"
       width="45"
       height="4"
       x="-6.9388939e-017"
       y="251.53334"
       style="fill:#ffffff;fill-opacity:1;stroke-width:0.26211035" />
    <rect
       id="rect21-1"
       width="45"
       height="4"
       x="-5.5511151e-017"
       y="267.86667"
       style="fill:#ffffff;fill-opacity:1;stroke-width:0.26211035" />
    <rect
       id="rect21-16"
       width="45"
       height="4"
       x="-5.5511151e-017"
       y="284.20001"
       style="fill:#ffffff;fill-opacity:1;stroke-width:0.26211035" />
    <rect
       id="rect21-6"
       width="45"
       height="4"
       x="16.5"
       y="243.24998"
       style="fill:#ffffff;fill-opacity:1;stroke-width:0.26211035" />
    <rect
       id="rect21-2-9"
       width="45"
       height="4"
       x="16.5"
       y="259.58331"
       style="fill:#ffffff;fill-opacity:1;stroke-width:0.26211035" />
    <rect
       id="rect21-1-6"
       width="45"
       height="4"
       x="16.5"
       y="275.91666"
       style="fill:#ffffff;fill-opacity:1;stroke-width:0.26211035" />
    <rect
       id="rect21-16-6"
       width="45"
       height="4"
       x="16.5"
       y="292.25"
       style="fill:#ffffff;fill-opacity:1;stroke-width:0.26211035" />
    <path
       style="fill:#ffffff;fill-opacity:1;stroke-width:0.26922488"
       d="M 77.75,267.85001 H 82 v 7.95 h 8.3 v -7.95 h 4.249999 v 20.65 H 90.3 l -0.05,-9 H 82 v 9 h -4.25 z"
       id="rect4556"
       inkscape:connector-curvature="0"
       sodipodi:nodetypes="ccccccccccccc" />
    <path
       style="fill:#ffffff;fill-opacity:1;stroke-width:1.09344995"
       d="m 405.2793,123.82617 -26.75977,78.04688 h 16.81836 l 5.89063,-19.46289 h 27.90625 l 5.88867,19.46289 h 16.81836 l -26.75782,-78.04688 z m 9.90234,12.47266 9.86328,32.59961 h -19.72851 z"
       id="rect4556-3"
       transform="matrix(0.26458333,0,0,0.26458333,0,235.08751)"
       inkscape:connector-curvature="0" />
    <path
       style="fill:#ffffff;fill-opacity:1;stroke-width:0.81961799"
       d="m 473.32812,123.82617 v 78.04688 h 14.53321 v -61.11328 l 18.27344,61.11328 h 8.39062 8.38867 l 18.27539,-61.11328 v 61.11328 h 14.53321 v -78.04688 h -23.01954 l -18.17773,59.15039 -18.17969,-59.15039 z"
       transform="matrix(0.26458333,0,0,0.26458333,0,235.08751)"
       id="rect4556-9"
       inkscape:connector-curvature="0" />
    <path
       style="fill:#ffffff;fill-opacity:1;stroke-width:0.96563119"
       d="m 584.94922,123.82617 v 78.04688 h 28.5918 c 31.50939,0 37.73313,-33.96053 15.44726,-41.38477 18.93668,-8.0821 15.0237,-36.66211 -15.44726,-36.66211 z m 15.99609,13.98438 h 14.36133 a 8.3149606,8.3149606 0 0 1 8.31445,8.31445 8.3149606,8.3149606 0 0 1 -8.31445,8.31641 h -14.36133 z m 0,29.92383 h 15.11719 a 10.015748,10.015748 0 0 1 10.01562,10.01757 10.015748,10.015748 0 0 1 -10.01562,10.01563 h -15.11719 z"
       transform="matrix(0.26458333,0,0,0.26458333,0,235.08751)"
       id="rect4556-4"
       inkscape:connector-curvature="0" />
    <path
       style="fill:#ffffff;fill-opacity:1;stroke-width:0.9205544"
       d="M 460.3457,-0.14257812 480.25781,77.90625 h 17.86133 l 14.19531,-57.773438 14.19727,57.773438 h 17.86133 L 564.2832,-0.14257812 H 549.67969 L 535.03516,62.179688 520.56836,-0.14257812 h -8.25391 -8.25195 L 489.5957,62.179688 474.94922,-0.14257812 Z"
       transform="matrix(0.26458333,0,0,0.26458333,0,235.08751)"
       id="rect4556-7"
       inkscape:connector-curvature="0" />
    <path
       inkscape:connector-curvature="0"
       style="fill:#ffffff;fill-opacity:1;stroke-width:0.26868898"
       d="M 176.35006,267.85001 H 180.55 v 14.28107 c 0,1.68658 1.98291,2.98893 4.16665,2.98893 2.16268,0 4.16335,-1.16941 4.16335,-2.98893 v -14.28107 h 4.20324 v 14.60086 c 0,2.54597 -2.3069,6.04914 -8.36659,6.04914 -6.3651,0 -8.36659,-3.49919 -8.36659,-6.04914 z"
       id="rect4556-5"
       sodipodi:nodetypes="ccccccccccc" />
    <path
       inkscape:connector-curvature="0"
       style="fill:#ffffff;fill-opacity:1;stroke-width:0.26868898"
       d="m 220.7168,278.20001 c 0,-8.91395 6.04386,-10.35 10.6032,-10.35 3.97335,0 6.13,1.06306 6.13,1.06306 l -1.48663,3.20555 c -3.35454,-1.72452 -11.05415,-1.932 -11.05415,6.08139 0,5.12636 3.27085,7.88292 8.42078,6.56 l -5e-4,-4.36 H 229.35 l 3.5e-4,-3.49997 h 8.09999 v 10.58419 c 0,0 -2.53751,1.01581 -6.77034,1.01581 -4.75678,0 -9.9632,-1.62897 -9.9632,-10.30003 z"
       id="rect4556-52"
       sodipodi:nodetypes="ccccccccccccc" />
    <path
       style="fill:#ffffff;fill-opacity:1;stroke-width:0.26922488"
       d="m 77.5,235.05001 h 4.25 v 7.95 h 8.3 v -7.95 h 4.249999 v 20.65 H 90.05 l -0.05,-9 h -8.25 v 9 H 77.5 Z"
       id="rect4556-44"
       inkscape:connector-curvature="0"
       sodipodi:nodetypes="ccccccccccccc" />
    <path
       inkscape:connector-curvature="0"
       style="fill:#ffffff;fill-opacity:1;stroke-width:0.28930864"
       d="m 107.23034,235.05011 -7.08019,20.6499 H 104.6 l 1.55857,-5.14955 h 7.38353 l 1.55804,5.14955 H 119.55 l -7.07968,-20.6499 z m 2.61999,3.30006 2.60966,8.62531 h -5.21984 z"
       id="rect4556-3-2" />
    <path
       inkscape:connector-curvature="0"
       style="fill:#ffffff;fill-opacity:1;stroke-width:0.25548992"
       d="m 200.67159,267.85001 v 20.6499 l 4.23241,10e-5 v -8.06455 l 2.36326,-4.5e-4 5.11494,8.065 h 4.58909 l -6.06511,-9.01269 c 5.45703,-1.84263 5.51055,-11.63731 -2.66967,-11.63731 z m 4.2323,3.70003 h 3.79977 c 1.21492,8e-5 1.91631,1.4338 1.91638,2.64872 2.1e-4,1.21512 -0.70126,2.64915 -1.91638,2.64922 h -3.79977 z"
       id="rect4556-4-7"
       sodipodi:nodetypes="ccccccccsccccccc" />
  </g>
</svg>
