<?xml version="1.0" encoding="UTF-8"?>
<svg width="376px" height="478px" viewport="0 0 376 478" version="1.1" xmlns="http://www.w3.org/2000/svg" xmlns:svg="http://www.w3.org/2000/svg">
  <style>
    .natural-tree {fill: #00ff00; stroke: none}
    .barrier-wall {fill: #000000; stroke: none}
    .barrier-retaining_wall {fill: #000000; stroke: none}
    .barrier-bollard {fill: #ff0000; stroke: none}
    .barrier-lift_gate {fill: #ff0000; stroke: none}
    .building {fill: #000000; stroke: none}
  </style>
  <desc>Document origin (bottom-left corner): lat=53.5531505, lon=10.0192438</desc>

  <circle cx="180.179" cy="51.207" r="0.100" class="barrier-bollard"/>
  <circle cx="188.644" cy="468.800" r="0.100" class="natural-tree"/>
  <circle cx="91.371" cy="59.956" r="0.100" class="natural-tree"/>
  <circle cx="194.840" cy="438.443" r="0.100" class="barrier-bollard"/>
  <circle cx="330.596" cy="263.070" r="0.100" class="barrier-lift_gate"/>
  <circle cx="47.498" cy="272.332" r="0.100" class="natural-tree"/>
  <circle cx="204.179" cy="199.195" r="0.100" class="natural-tree"/>
  <circle cx="296.090" cy="441.537" r="0.100" class="natural-tree"/>
  <circle cx="231.763" cy="284.599" r="0.100" class="natural-tree"/>
  <circle cx="137.489" cy="117.075" r="0.100" class="natural-tree"/>
  <circle cx="139.269" cy="239.815" r="0.100" class="natural-tree"/>
  <circle cx="264.925" cy="272.621" r="0.100" class="natural-tree"/>
  <circle cx="178.560" cy="147.476" r="0.100" class="barrier-bollard"/>
  <circle cx="17.945" cy="18.189" r="0.100" class="natural-tree"/>
  <circle cx="168.093" cy="162.081" r="0.100" class="natural-tree"/>
  <circle cx="174.184" cy="211.896" r="0.100" class="natural-tree"/>
  <circle cx="133.480" cy="0.100" r="0.100" class="natural-tree"/>
  <circle cx="100.418" cy="83.200" r="0.100" class="natural-tree"/>
  <circle cx="154.644" cy="218.976" r="0.100" class="barrier-bollard"/>
  <circle cx="31.507" cy="21.117" r="0.100" class="natural-tree"/>
  <circle cx="154.028" cy="203.180" r="0.100" class="natural-tree"/>
  <circle cx="65.194" cy="293.293" r="0.100" class="barrier-kerb"/>
  <circle cx="126.076" cy="151.138" r="0.100" class="barrier-bollard"/>
  <circle cx="217.922" cy="289.208" r="0.100" class="natural-tree"/>
  <circle cx="83.390" cy="106.521" r="0.100" class="natural-tree"/>
  <circle cx="95.002" cy="98.718" r="0.100" class="natural-tree"/>
  <circle cx="172.072" cy="442.261" r="0.100" class="barrier-bollard"/>
  <circle cx="81.329" cy="284.443" r="0.100" class="natural-tree"/>
  <circle cx="272.045" cy="414.888" r="0.100" class="natural-tree"/>
  <circle cx="262.942" cy="278.410" r="0.100" class="barrier-bollard"/>
  <circle cx="137.132" cy="174.337" r="0.100" class="natural-tree"/>
  <circle cx="221.504" cy="460.606" r="0.100" class="natural-tree"/>
  <circle cx="179.372" cy="50.183" r="0.100" class="barrier-bollard"/>
  <circle cx="239.077" cy="298.659" r="0.100" class="barrier-bollard"/>
  <circle cx="237.325" cy="317.884" r="0.100" class="barrier-bollard"/>
  <circle cx="66.449" cy="81.063" r="0.100" class="natural-tree"/>
  <circle cx="118.503" cy="62.127" r="0.100" class="natural-tree"/>
  <circle cx="114.086" cy="84.781" r="0.100" class="natural-tree"/>
  <circle cx="105.776" cy="265.397" r="0.100" class="natural-tree"/>
  <circle cx="193.307" cy="168.037" r="0.100" class="barrier-bollard"/>
  <circle cx="17.409" cy="29.099" r="0.100" class="natural-tree"/>
  <circle cx="184.810" cy="187.373" r="0.100" class="natural-tree"/>
  <circle cx="210.138" cy="235.864" r="0.100" class="natural-tree"/>
  <circle cx="304.031" cy="401.963" r="0.100" class="natural-tree"/>
  <circle cx="95.716" cy="63.151" r="0.100" class="natural-tree"/>
  <circle cx="179.524" cy="48.502" r="0.100" class="barrier-bollard"/>
  <circle cx="52.868" cy="279.011" r="0.100" class="natural-tree"/>
  <circle cx="239.676" cy="455.653" r="0.100" class="natural-tree"/>
  <circle cx="309.514" cy="438.443" r="0.100" class="natural-tree"/>
  <circle cx="95.996" cy="273.011" r="0.100" class="natural-tree"/>
  <circle cx="182.123" cy="58.164" r="0.100" class="barrier-bollard"/>
  <circle cx="114.691" cy="341.773" r="0.100" class="barrier-swing_gate"/>
  <circle cx="269.984" cy="272.009" r="0.100" class="natural-tree"/>
  <circle cx="197.096" cy="169.884" r="0.100" class="barrier-bollard"/>
  <circle cx="171.902" cy="167.836" r="0.100" class="natural-tree"/>
  <circle cx="216.969" cy="236.665" r="0.100" class="natural-tree"/>
  <circle cx="155.583" cy="218.398" r="0.100" class="barrier-bollard"/>
  <circle cx="227.931" cy="458.569" r="0.100" class="natural-tree"/>
  <circle cx="33.194" cy="10.119" r="0.100" class="natural-tree"/>
  <circle cx="141.687" cy="89.055" r="0.100" class="natural-tree"/>
  <circle cx="265.464" cy="385.065" r="0.100" class="barrier-bollard"/>
  <circle cx="158.684" cy="209.659" r="0.100" class="natural-tree"/>
  <circle cx="77.798" cy="307.019" r="0.100" class="natural-tree"/>
  <circle cx="160.381" cy="448.473" r="0.100" class="barrier-bollard"/>
  <circle cx="88.000" cy="110.596" r="0.100" class="natural-tree"/>
  <circle cx="108.584" cy="76.966" r="0.100" class="natural-tree"/>
  <circle cx="153.702" cy="454.194" r="0.100" class="barrier-bollard"/>
  <circle cx="76.442" cy="288.262" r="0.100" class="natural-tree"/>
  <circle cx="232.920" cy="291.779" r="0.100" class="barrier-bollard"/>
  <circle cx="38.603" cy="14.649" r="0.100" class="natural-tree"/>
  <circle cx="248.267" cy="235.886" r="0.100" class="natural-tree"/>
  <circle cx="196.831" cy="466.518" r="0.100" class="natural-tree"/>
  <circle cx="346.644" cy="396.331" r="0.100" class="natural-tree"/>
  <circle cx="190.046" cy="439.545" r="0.100" class="barrier-bollard"/>
  <circle cx="188.035" cy="62.650" r="0.100" class="barrier-lift_gate"/>
  <circle cx="231.669" cy="258.973" r="0.100" class="natural-tree"/>
  <circle cx="128.239" cy="247.797" r="0.100" class="natural-tree"/>
  <circle cx="179.704" cy="151.650" r="0.100" class="barrier-bollard"/>
  <circle cx="22.197" cy="24.312" r="0.100" class="natural-tree"/>
  <circle cx="186.345" cy="244.925" r="0.100" class="natural-tree"/>
  <circle cx="262.737" cy="281.171" r="0.100" class="barrier-bollard"/>
  <circle cx="291.103" cy="410.791" r="0.100" class="natural-tree"/>
  <circle cx="181.541" cy="57.374" r="0.100" class="barrier-bollard"/>
  <circle cx="181.461" cy="47.155" r="0.100" class="barrier-bollard"/>
  <circle cx="246.269" cy="453.415" r="0.100" class="natural-tree"/>
  <circle cx="160.549" cy="215.069" r="0.100" class="natural-tree"/>
  <circle cx="265.413" cy="448.595" r="0.100" class="natural-tree"/>
  <circle cx="34.523" cy="18.902" r="0.100" class="natural-tree"/>
  <circle cx="247.276" cy="277.508" r="0.100" class="natural-tree"/>
  <circle cx="145.199" cy="126.737" r="0.100" class="natural-tree"/>
  <circle cx="122.718" cy="251.793" r="0.100" class="natural-tree"/>
  <circle cx="78.307" cy="299.249" r="0.100" class="natural-tree"/>
  <circle cx="60.089" cy="297.590" r="0.100" class="barrier-kerb"/>
  <circle cx="225.996" cy="269.527" r="0.100" class="natural-tree"/>
  <circle cx="159.086" cy="148.455" r="0.100" class="natural-tree"/>
  <circle cx="110.007" cy="124.989" r="0.100" class="natural-tree"/>
  <circle cx="122.578" cy="151.127" r="0.100" class="barrier-bollard"/>
  <circle cx="180.370" cy="55.804" r="0.100" class="barrier-bollard"/>
  <circle cx="26.369" cy="17.310" r="0.100" class="natural-tree"/>
  <circle cx="132.563" cy="167.558" r="0.100" class="natural-tree"/>
  <circle cx="260.686" cy="257.782" r="0.100" class="natural-tree"/>
  <circle cx="290.370" cy="443.263" r="0.100" class="natural-tree"/>
  <circle cx="125.084" cy="150.070" r="0.100" class="barrier-bollard"/>
  <circle cx="60.597" cy="73.170" r="0.100" class="natural-tree"/>
  <circle cx="130.598" cy="106.978" r="0.100" class="natural-tree"/>
  <circle cx="68.578" cy="52.153" r="0.100" class="natural-tree"/>
  <circle cx="100.883" cy="269.204" r="0.100" class="natural-tree"/>
  <circle cx="180.952" cy="56.595" r="0.100" class="barrier-bollard"/>
  <circle cx="22.733" cy="27.685" r="0.100" class="natural-tree"/>
  <circle cx="15.459" cy="2.315" r="0.100" class="natural-tree"/>
  <circle cx="128.000" cy="160.790" r="0.100" class="natural-tree"/>
  <circle cx="202.710" cy="464.937" r="0.100" class="natural-tree"/>
  <circle cx="264.869" cy="398.512" r="0.100" class="natural-tree"/>
  <circle cx="100.682" cy="69.808" r="0.100" class="natural-tree"/>
  <circle cx="235.440" cy="300.217" r="0.100" class="barrier-bollard"/>
  <circle cx="121.361" cy="166.044" r="0.100" class="barrier-bollard"/>
  <circle cx="340.271" cy="79.371" r="0.100" class="barrier-gate"/>
  <circle cx="236.874" cy="265.152" r="0.100" class="natural-tree"/>
  <circle cx="11.154" cy="58.086" r="0.100" class="natural-tree"/>
  <circle cx="192.413" cy="438.999" r="0.100" class="barrier-bollard"/>
  <circle cx="224.489" cy="299.583" r="0.100" class="natural-tree"/>
  <circle cx="133.754" cy="243.812" r="0.100" class="natural-tree"/>
  <circle cx="181.799" cy="53.233" r="0.100" class="barrier-bollard"/>
  <circle cx="231.140" cy="238.747" r="0.100" class="natural-tree"/>
  <circle cx="17.674" cy="24.846" r="0.100" class="natural-tree"/>
  <circle cx="176.233" cy="174.393" r="0.100" class="natural-tree"/>
  <circle cx="198.949" cy="212.431" r="0.100" class="natural-tree"/>
  <circle cx="263.107" cy="276.117" r="0.100" class="barrier-bollard"/>
  <circle cx="157.864" cy="217.229" r="0.100" class="barrier-lift_gate"/>
  <circle cx="93.058" cy="74.862" r="0.100" class="natural-tree"/>
  <circle cx="36.481" cy="259.608" r="0.100" class="natural-tree"/>
  <circle cx="277.693" cy="446.202" r="0.100" class="natural-tree"/>
  <circle cx="236.729" cy="286.725" r="0.100" class="natural-tree"/>
  <circle cx="135.650" cy="85.293" r="0.100" class="natural-tree"/>
  <circle cx="180.496" cy="47.823" r="0.100" class="barrier-bollard"/>
  <circle cx="96.338" cy="119.290" r="0.100" class="natural-tree"/>
  <circle cx="71.555" cy="292.069" r="0.100" class="natural-tree"/>
  <circle cx="161.445" cy="452.280" r="0.100" class="barrier-bollard"/>
  <circle cx="261.824" cy="268.992" r="0.100" class="natural-tree"/>
  <circle cx="189.994" cy="165.821" r="0.100" class="barrier-bollard"/>
  <circle cx="163.351" cy="154.901" r="0.100" class="natural-tree"/>
  <circle cx="121.189" cy="142.210" r="0.100" class="natural-tree"/>
  <circle cx="96.368" cy="476.993" r="0.100" class="natural-tree"/>
  <circle cx="191.480" cy="54.647" r="0.100" class="barrier-bollard"/>
  <circle cx="180.992" cy="52.220" r="0.100" class="barrier-bollard"/>
  <circle cx="300.883" cy="183.343" r="0.100" class="barrier-gate"/>
  <circle cx="149.373" cy="196.712" r="0.100" class="natural-tree"/>
  <circle cx="63.704" cy="77.434" r="0.100" class="natural-tree"/>
  <circle cx="123.418" cy="164.886" r="0.100" class="barrier-lift_gate"/>
  <circle cx="86.222" cy="280.636" r="0.100" class="natural-tree"/>
  <circle cx="308.655" cy="49.771" r="0.100" class="barrier-cycle_barrier"/>
  <circle cx="22.733" cy="30.780" r="0.100" class="natural-tree"/>
  <circle cx="301.214" cy="410.791" r="0.100" class="natural-tree"/>
  <circle cx="180.557" cy="470.714" r="0.100" class="natural-tree"/>
  <circle cx="178.558" cy="49.170" r="0.100" class="barrier-bollard"/>
  <circle cx="123.919" cy="102.614" r="0.100" class="natural-tree"/>
  <circle cx="122.300" cy="165.465" r="0.100" class="barrier-bollard"/>
  <circle cx="252.690" cy="452.447" r="0.100" class="natural-tree"/>
  <circle cx="125.638" cy="73.838" r="0.100" class="natural-tree"/>
  <circle cx="18.124" cy="52.765" r="0.100" class="natural-tree"/>
  <circle cx="141.344" cy="121.906" r="0.100" class="natural-tree"/>
  <circle cx="117.203" cy="255.779" r="0.100" class="natural-tree"/>
  <circle cx="212.956" cy="272.888" r="0.100" class="natural-tree"/>
  <circle cx="178.025" cy="143.357" r="0.100" class="barrier-bollard"/>
  <circle cx="180.148" cy="180.326" r="0.100" class="natural-tree"/>
  <circle cx="202.414" cy="226.546" r="0.100" class="natural-tree"/>
  <circle cx="308.633" cy="399.147" r="0.100" class="natural-tree"/>
  <circle cx="154.695" cy="141.810" r="0.100" class="natural-tree"/>
  <circle cx="125.849" cy="6.557" r="0.100" class="natural-tree"/>
  <circle cx="182.612" cy="54.257" r="0.100" class="barrier-bollard"/>
  <circle cx="233.321" cy="457.378" r="0.100" class="natural-tree"/>
  <circle cx="258.813" cy="450.165" r="0.100" class="natural-tree"/>
  <circle cx="142.031" cy="103.939" r="0.100" class="barrier-bollard"/>
  <circle cx="29.206" cy="17.833" r="0.100" class="natural-tree"/>
  <circle cx="213.048" cy="283.709" r="0.100" class="natural-tree"/>
  <circle cx="107.632" cy="48.902" r="0.100" class="natural-tree"/>
  <circle cx="91.109" cy="276.829" r="0.100" class="natural-tree"/>
  <circle cx="181.495" cy="55.025" r="0.100" class="barrier-bollard"/>
  <circle cx="118.052" cy="463.067" r="0.100" class="barrier-bollard"/>
  <circle cx="127.048" cy="152.207" r="0.100" class="barrier-bollard"/>
  <circle cx="215.675" cy="56.116" r="0.100" class="barrier-lift_gate"/>
  <circle cx="162.993" cy="82.721" r="0.100" class="barrier-lift_gate"/>
  <circle cx="27.434" cy="3.829" r="0.100" class="natural-tree"/>
  <circle cx="241.074" cy="316.615" r="0.100" class="barrier-bollard"/>
  <circle cx="202.576" cy="54.591" r="0.100" class="barrier-bollard"/>
  <circle cx="141.702" cy="181.105" r="0.100" class="natural-tree"/>
  <circle cx="253.101" cy="246.305" r="0.100" class="natural-tree"/>
  <circle cx="215.136" cy="461.909" r="0.100" class="natural-tree"/>
  <circle cx="228.523" cy="303.178" r="0.100" class="barrier-bollard"/>
  <circle cx="264.354" cy="401.963" r="0.100" class="natural-tree"/>
  <circle cx="245.306" cy="315.201" r="0.100" class="barrier-bollard"/>
  <circle cx="25.073" cy="47.466" r="0.100" class="natural-tree"/>
  <circle cx="117.975" cy="102.703" r="0.100" class="natural-tree"/>
  <circle cx="242.078" cy="271.330" r="0.100" class="natural-tree"/>
  <circle cx="110.663" cy="261.589" r="0.100" class="natural-tree"/>
  <circle cx="14.837" cy="24.757" r="0.100" class="natural-tree"/>
  <circle cx="349.625" cy="367.198" r="0.100" class="natural-tree"/>
  <path d="M 349.125,268.825 L 361.696,263.014 358.720,256.580 363.382,254.465 367.852,252.361 368.884,254.587 372.190,253.051 375.867,260.888 367.773,264.629 370.657,270.862 344.266,283.074 341.336,276.740 337.712,278.466 329.856,282.050 326.636,275.104 329.869,273.645 330.729,273.067 331.212,272.220 331.291,271.219 330.821,269.894 333.255,268.825 336.958,267.133 338.115,266.565 346.301,262.725 349.125,268.825 z" class="building"/>
  <path d="M 106.406,399.058 L 122.145,438.198 129.743,457.100 143.610,451.523 133.360,426.020 120.279,393.481 106.406,399.058 z" class="building"/>
  <path d="M 27.091,287.894 L 35.410,280.391 39.867,285.334 45.270,291.323 36.951,298.826 27.091,287.894 z" class="building"/>
  <path d="M 127.539,153.628 L 129.069,155.842 128.476,156.342 146.670,183.851 142.401,188.490 143.346,190.044 143.602,189.889 142.775,188.527 147.050,183.881 128.873,156.399 129.471,155.896 127.786,153.458 z" class="barrier-wall"/>
  <path d="M 27.091,287.894 L 16.517,276.161 24.836,268.658 30.093,274.491 35.410,280.391 27.091,287.894 z" class="building"/>
  <path d="M 262.678,206.529 L 267.584,202.922 269.929,201.915 269.810,201.640 267.434,202.659 262.500,206.288 z" class="barrier-fence"/>
  <path d="M 189.573,250.128 L 185.945,253.689 181.712,248.713 181.483,248.907 185.926,254.128 189.783,250.342 z" class="barrier-wall"/>
  <path d="M 246.598,234.153 L 243.560,235.920 248.754,245.102 252.845,254.959 255.824,261.386 259.359,273.489 260.775,272.928 260.664,272.649 259.554,273.089 256.106,261.281 253.120,254.839 249.024,244.970 243.967,236.030 246.749,234.412 z" class="barrier-retaining_wall"/>
  <path d="M 130.679,188.475 L 120.495,195.455 114.821,186.271 105.531,193.195 97.311,182.542 116.957,167.680 130.679,188.475 z" class="building"/>
  <path d="M 43.250,29.905 L 37.341,34.619 39.624,37.480 45.527,32.767 45.340,32.533 39.671,37.059 37.762,34.666 43.438,30.140 z" class="barrier-fence"/>
  <path d="M 36.262,170.530 L 55.664,155.847 53.072,152.430 51.055,149.758 31.647,164.441 33.756,167.224 36.262,170.530 z" class="building"/>
  <path d="M 155.158,136.279 L 155.743,138.713 148.849,140.226 151.486,152.173 156.399,151.140 156.337,150.847 151.715,151.818 149.207,140.455 156.107,138.940 155.449,136.209 z" class="barrier-retaining_wall"/>
  <path d="M 195.409,438.276 L 202.676,436.417 204.362,429.148 194.252,433.667 195.409,438.276 z" class="natural-scrub"/>
  <path d="M 226.957,378.208 L 224.742,379.377 223.995,377.039 208.990,382.549 210.326,384.876 208.257,386.100 222.594,428.880 225.431,435.793 245.296,428.079 242.638,421.077 226.957,378.208 z" class="building"/>
  <path d="M 113.834,31.214 L 114.839,32.572 116.426,31.381 118.106,30.134 117.101,28.776 113.834,31.214 z" class="building"/>
  <path d="M 288.346,221.002 L 291.864,219.522 295.157,218.141 296.288,217.663 311.631,254.176 305.196,256.870 304.555,255.344 300.508,245.715 299.000,246.350 297.525,242.832 289.933,224.776 288.637,221.681 288.346,221.002 z" class="building"/>
  <path d="M 30.649,245.535 L 28.452,247.449 43.944,264.910 45.185,263.744 45.975,264.670 46.779,265.628 45.449,266.623 54.790,276.677 62.377,270.646 62.191,270.411 54.820,276.269 45.896,266.663 47.212,265.678 46.204,264.476 45.209,263.309 43.963,264.480 28.877,247.477 30.846,245.762 z" class="barrier-fence"/>
  <path d="M 285.374,415.446 L 291.702,414.097 292.644,418.501 286.436,419.828 286.499,420.122 293.001,418.732 291.932,413.741 285.312,415.153 z" class="barrier-retaining_wall"/>
  <path d="M 202.980,417.248 L 158.363,425.240 152.074,413.841 166.940,405.292 181.607,396.943 191.460,395.240 201.366,393.559 202.980,417.248 z" class="building"/>
  <path d="M 360.526,285.490 L 373.330,315.078 368.060,330.919 364.780,332.467 357.612,335.851 355.126,337.020 347.680,340.682 342.845,330.162 352.328,325.676 359.655,322.214 361.949,315.557 350.733,289.764 360.526,285.490 z" class="building"/>
  <path d="M 247.976,232.390 L 256.764,225.934 269.863,216.316 262.589,206.408 257.689,210.026 240.708,222.505 244.669,227.882 247.976,232.390 z" class="building"/>
  <path d="M 120.619,167.270 L 124.567,173.571 124.821,173.412 120.873,167.111 z" class="barrier-wall"/>
  <path d="M 269.337,87.764 L 312.226,56.005 317.218,52.309 338.320,80.818 339.801,82.822 283.000,124.878 270.634,108.158 279.548,101.557 269.337,87.764 z" class="building"/>
  <path d="M 255.267,390.008 L 245.170,396.553 233.021,381.225 248.006,375.703 255.267,390.008 z" class="building"/>
  <path d="M 48.999,188.787 L 56.563,183.076 55.631,181.829 61.840,177.143 62.746,178.334 69.981,172.879 76.864,181.996 55.849,197.870 48.999,188.787 z" class="building"/>
  <path d="M 100.129,127.335 L 101.105,124.707 100.198,121.349 96.980,117.064 95.496,115.641 91.033,111.378 82.350,103.046 73.410,92.250 68.813,80.942 65.869,75.574 61.663,69.359 57.292,72.695 57.474,72.933 61.593,69.790 65.613,75.731 68.541,81.072 73.149,92.406 82.130,103.251 90.825,111.595 95.289,115.858 96.755,117.263 99.924,121.483 100.790,124.693 99.848,127.230 z" class="barrier-wall"/>
  <path d="M 182.374,59.990 L 174.499,66.057 159.376,77.712 159.039,77.968 157.617,79.070 161.446,84.046 162.861,85.883 187.625,66.792 182.374,59.990 z" class="building"/>
  <path d="M 207.470,263.978 L 209.255,265.040 211.241,265.946 213.965,266.038 216.141,265.036 217.958,263.678 218.859,261.516 220.004,259.061 221.734,257.322 223.893,256.541 226.252,256.541 228.801,256.806 231.552,257.696 234.077,257.968 236.538,257.236 237.928,255.764 238.565,253.288 237.478,250.392 235.952,247.878 233.365,245.555 231.054,243.772 228.857,242.016 227.804,240.519 226.091,238.087 224.085,237.366 221.811,236.909 219.609,237.911 218.070,239.638 216.552,242.317 215.048,245.416 213.744,247.239 211.395,248.622 208.803,249.056 206.211,248.112 204.728,246.710 203.045,245.033 201.362,243.166 199.561,241.186 196.416,240.283 193.683,239.586 191.234,238.183 188.734,235.462 187.023,232.602 185.530,228.789 185.530,225.552 186.361,222.258 187.766,219.496 190.372,216.575 193.131,212.398 195.529,208.229 197.397,204.760 199.351,200.401 201.123,196.149 202.344,193.448 203.941,192.605 205.664,192.864 205.709,192.568 203.888,192.293 202.113,193.231 200.847,196.029 199.075,200.282 197.128,204.628 195.266,208.083 192.876,212.241 190.134,216.391 187.516,219.325 186.078,222.152 185.230,225.514 185.230,228.845 186.752,232.735 188.493,235.642 191.045,238.420 193.569,239.867 196.338,240.572 199.396,241.451 201.139,243.367 202.828,245.240 204.519,246.925 206.050,248.373 208.775,249.365 211.500,248.909 213.951,247.465 215.306,245.570 216.817,242.457 218.315,239.814 219.791,238.158 221.847,237.222 224.004,237.656 225.900,238.338 227.559,240.692 228.636,242.224 230.869,244.008 233.173,245.786 235.718,248.072 237.207,250.523 238.251,253.305 237.657,255.615 236.376,256.971 234.049,257.663 231.615,257.401 228.864,256.510 226.268,256.241 223.840,256.241 221.568,257.063 219.754,258.886 218.584,261.395 217.713,263.487 215.986,264.777 213.904,265.735 211.311,265.648 209.395,264.774 207.623,263.720 z" class="barrier-wall"/>
  <path d="M 137.091,79.192 L 152.194,67.793 153.543,69.664 154.853,71.467 139.822,82.810 137.091,79.192 z" class="building"/>
  <path d="M 177.413,443.998 L 185.474,441.920 186.715,446.728 180.361,448.361 180.435,448.651 187.081,446.944 185.690,441.555 177.338,443.708 z" class="barrier-retaining_wall"/>
  <path d="M 188.756,436.239 L 189.556,439.612 176.066,442.717 188.756,436.239 z" class="natural-scrub"/>
  <path d="M 224.120,75.806 L 209.578,57.004 209.341,57.187 223.882,75.989 z" class="barrier-retaining_wall"/>
  <path d="M 133.222,6.890 L 136.588,4.352 140.615,9.607 144.893,15.273 149.092,20.772 151.982,24.702 148.610,27.251 133.222,6.890 z" class="building"/>
  <path d="M 59.110,308.577 L 61.742,311.505 67.872,318.296 67.370,318.752 69.525,321.134 75.252,327.491 74.624,328.058 77.553,331.309 83.141,337.509 74.531,345.268 65.988,335.795 66.444,335.383 57.708,325.687 58.442,325.019 49.951,315.602 51.122,314.544 36.951,298.826 45.270,291.323 48.020,294.373 48.338,294.084 49.389,295.252 50.593,296.588 49.766,297.323 54.931,303.045 55.658,302.388 56.306,303.112 57.847,304.826 57.186,305.427 59.619,308.121 59.110,308.577 z" class="building"/>
  <path d="M 87.472,304.592 L 84.940,306.373 86.712,310.403 103.151,305.371 105.386,310.926 113.573,305.216 114.896,306.396 121.687,313.086 119.273,315.323 123.320,323.795 107.609,330.685 111.847,340.704 135.753,329.606 135.429,328.793 142.193,325.487 145.149,332.122 175.310,318.674 174.940,317.839 179.192,315.657 180.005,317.494 216.302,301.331 211.224,289.931 195.101,264.295 182.887,269.682 183.416,270.640 181.770,271.352 182.848,273.868 184.501,273.167 189.269,283.352 163.407,294.429 167.513,303.468 168.373,303.134 169.358,305.271 141.393,317.873 135.726,314.210 147.510,305.104 143.020,296.466 137.300,300.974 127.638,291.189 145.777,278.321 153.150,272.332 151.503,269.783 139.918,278.610 139.065,277.107 132.042,270.462 126.639,274.480 130.382,280.202 124.312,284.844 118.049,278.521 112.832,282.685 116.588,288.328 111.086,292.291 102.827,284.711 97.358,288.852 100.890,294.629 95.586,299.082 89.238,292.492 83.194,296.800 87.472,304.592 z" class="building"/>
  <path d="M 270.410,81.173 L 249.143,52.653 248.902,52.833 270.169,81.353 z" class="barrier-retaining_wall"/>
  <path d="M 220.104,438.509 L 213.392,440.209 212.130,435.212 218.716,433.545 218.643,433.255 211.765,434.995 213.175,440.573 220.178,438.800 z" class="barrier-retaining_wall"/>
  <path d="M 47.206,92.707 L 28.955,105.954 21.569,96.180 9.805,104.874 18.726,116.574 33.247,136.210 44.733,127.739 37.254,117.587 55.717,104.117 47.206,92.707 z" class="building"/>
  <path d="M 179.602,261.932 L 175.489,255.431 175.235,255.592 179.348,262.093 z" class="barrier-hedge"/>
  <path d="M 269.870,201.778 L 286.586,194.620 289.430,201.366 293.457,210.895 294.112,212.453 292.975,212.932 289.682,214.323 277.369,219.522 269.870,201.778 z" class="building"/>
  <path d="M 146.554,60.012 L 146.977,60.602 152.194,67.793 153.543,69.664 154.853,71.467 159.376,77.712 174.499,66.057 161.240,48.569 149.212,57.942 146.554,60.012 z" class="building"/>
  <path d="M 75.159,216.650 L 89.442,205.618 105.531,193.195 97.311,182.542 49.653,219.333 55.764,227.247 57.880,229.986 75.159,216.650 z" class="building"/>
  <path d="M 33.247,136.210 L 44.733,127.739 53.336,121.271 59.539,129.565 39.324,144.504 33.247,136.210 z" class="building"/>
  <path d="M 124.465,369.926 L 143.127,409.811 161.140,401.930 156.187,375.057 154.249,360.931 124.465,369.926 z" class="building"/>
  <path d="M 29.801,161.632 L 60.345,137.943 60.161,137.706 29.617,161.395 z" class="barrier-hedge"/>
  <path d="M 293.457,210.895 L 303.720,206.587 306.822,213.978 308.878,213.110 311.874,220.234 309.606,221.181 315.941,236.253 318.448,235.196 321.820,243.222 319.367,244.246 322.892,252.628 312.775,256.881 311.631,254.176 296.288,217.663 294.112,212.453 293.457,210.895 z" class="building"/>
  <path d="M 129.743,457.100 L 110.394,464.380 100.019,468.644 94.728,449.185 122.145,438.198 129.743,457.100 z" class="building"/>
  <path d="M 286.642,194.759 L 286.920,194.647 287.219,194.525 287.105,194.247 286.808,194.369 286.531,194.480 z" class="barrier-fence"/>
  <path d="M 137.485,111.667 L 131.869,115.876 144.616,132.883 144.856,132.703 132.289,115.936 137.664,111.907 z" class="barrier-wall"/>
  <path d="M 120.279,393.481 L 108.072,366.330 107.675,365.373 109.804,364.404 100.136,350.834 93.398,356.244 75.484,363.157 80.979,377.351 94.549,372.030 106.406,399.058 120.279,393.481 z" class="building"/>
  <path d="M 83.537,275.538 L 66.741,287.983 59.573,279.022 76.158,265.920 83.537,275.538 z" class="building"/>
  <path d="M 63.252,55.305 L 57.153,59.768 59.314,62.727 65.413,58.263 65.236,58.021 59.379,62.307 57.572,59.833 63.429,55.547 z" class="barrier-fence"/>
  <path d="M 170.273,443.363 L 166.636,440.213 159.408,442.962 157.722,449.352 170.273,443.363 z" class="natural-scrub"/>
  <path d="M 85.124,175.562 L 87.597,173.770 88.516,175.039 102.231,165.053 101.225,163.673 112.745,155.291 90.175,124.277 80.382,131.401 92.437,147.977 93.574,147.153 97.416,152.430 87.689,159.510 86.836,158.330 80.561,162.894 81.453,164.129 78.412,166.333 85.124,175.562 z" class="building"/>
  <path d="M 288.637,221.681 L 266.881,230.253 275.386,250.702 278.864,255.333 299.000,246.350 297.525,242.832 280.002,251.014 278.229,248.443 271.623,232.479 289.933,224.776 288.637,221.681 z" class="building"/>
  <path d="M 194.368,193.054 L 191.319,198.403 181.554,193.115 183.491,189.843 183.233,189.690 181.137,193.230 191.434,198.807 194.628,193.202 z" class="barrier-wall"/>
  <path d="M 268.017,82.778 L 244.707,50.596 244.464,50.772 267.774,82.954 z" class="barrier-retaining_wall"/>
  <path d="M 204.613,394.049 L 160.413,410.179 143.907,369.558 179.675,354.630 174.801,341.517 124.002,360.475 152.075,428.636 209.804,407.117 204.613,394.049 z" class="building"/>
  <path d="M 104.041,17.922 L 108.438,21.574 119.560,13.113 118.397,7.302 104.041,17.922 z" class="natural-grassland"/>
  <path d="M 174.801,341.517 L 233.754,319.620 238.628,332.734 225.601,337.576 179.675,354.630 174.801,341.517 z" class="building"/>
  <path d="M 206.909,435.248 L 217.416,432.721 211.518,426.209 208.595,427.355 206.909,435.248 z" class="natural-scrub"/>
  <path d="M 143.428,102.981 L 144.166,102.771 145.784,104.293 145.989,104.074 144.248,102.435 143.346,102.693 z" class="barrier-wall"/>
  <path d="M 171.418,125.691 L 187.870,113.612 203.384,134.719 205.315,133.305 226.885,117.464 229.074,120.436 230.892,119.101 236.738,127.060 234.986,128.340 237.472,131.724 213.250,149.524 257.689,210.026 240.708,222.505 231.311,209.703 235.689,206.486 215.658,179.224 212.471,181.562 203.345,169.128 201.441,170.530 193.783,160.044 191.495,158.764 189.610,157.161 188.387,155.680 187.402,154.033 186.549,151.873 186.105,149.624 178.415,139.171 180.299,137.791 171.418,125.691 z" class="building"/>
  <path d="M 75.159,216.650 L 99.434,248.086 106.913,257.771 125.588,243.355 119.457,235.418 115.067,238.814 89.442,205.618 75.159,216.650 z" class="building"/>
  <path d="M 220.159,93.720 L 226.871,90.992 229.146,90.068 233.233,100.143 224.240,103.794 220.159,93.720 z" class="building"/>
  <path d="M 144.633,192.233 L 145.545,193.565 151.660,191.350 167.492,215.385 167.743,215.220 151.780,190.987 145.662,193.203 144.881,192.064 z" class="barrier-wall"/>
  <path d="M 246.854,63.830 L 252.779,77.734 254.803,82.499 260.854,96.692 265.476,107.546 275.495,131.067 300.539,189.922 287.499,195.254 287.162,194.386 247.146,96.480 244.752,97.460 243.522,94.454 241.928,95.111 239.428,89.000 243.138,87.486 238.992,77.333 237.378,77.990 232.948,67.159 233.166,65.255 234.045,63.842 235.659,62.773 237.675,62.517 239.315,63.062 240.678,64.309 241.458,66.124 246.854,63.830 z" class="building"/>
  <path d="M 214.484,186.279 L 221.315,196.030 226.110,202.877 226.355,202.704 221.561,195.858 214.730,186.107 z" class="natural-tree_row"/>
  <path d="M 181.092,269.819 L 191.751,262.828 191.587,262.577 180.927,269.568 z" class="barrier-hedge"/>
  <path d="M 306.154,205.562 L 303.720,206.587 293.457,210.895 289.430,201.366 302.139,196.022 306.154,205.562 z" class="building"/>
  <path d="M 62.449,244.168 L 70.682,254.832 59.480,263.482 51.247,252.806 62.449,244.168 z" class="building"/>
  <path d="M 110.654,35.622 L 131.563,64.309 133.150,66.480 134.737,68.651 146.216,60.179 144.590,57.975 142.963,55.771 121.948,27.284 118.106,30.134 116.426,31.381 114.839,32.572 110.654,35.622 z" class="building"/>
  <path d="M 60.342,137.945 L 73.898,127.971 73.720,127.729 60.164,137.704 z" class="barrier-hedge"/>
  <path d="M 278.864,255.333 L 299.000,246.350 300.508,245.715 304.555,255.344 284.043,264.406 284.836,265.831 276.174,271.374 247.976,232.390 256.764,225.934 275.386,250.702 278.864,255.333 z" class="building"/>
  <path d="M 51.340,74.363 L 57.417,72.960 57.349,72.668 51.272,74.070 z" class="barrier-fence"/>
  <path d="M 352.791,402.676 L 346.694,405.839 344.700,402.462 350.236,398.512 350.061,398.268 344.302,402.378 346.580,406.236 352.929,402.943 z" class="barrier-retaining_wall"/>
  <path d="M 118.816,110.116 L 121.364,110.909 123.366,112.392 124.840,114.646 125.283,117.751 126.997,120.454 128.852,122.221 130.153,124.565 130.328,127.608 129.458,130.308 127.805,132.566 125.635,133.777 123.023,134.477 120.149,134.128 117.797,132.913 116.057,131.340 115.103,129.614 114.757,127.602 114.461,127.653 114.816,129.715 115.819,131.529 117.624,133.162 120.059,134.419 123.044,134.782 125.749,134.057 128.009,132.797 129.729,130.446 130.631,127.647 130.449,124.479 129.092,122.036 127.230,120.263 125.571,117.645 125.128,114.538 123.587,112.183 121.502,110.638 118.905,109.829 z" class="barrier-wall"/>
  <path d="M 170.974,438.766 L 173.990,441.159 187.916,434.602 187.295,431.764 170.974,438.766 z" class="natural-scrub"/>
  <path d="M 251.285,358.126 L 235.910,314.889 168.400,341.906 170.404,361.443 205.022,348.608 223.472,341.617 225.171,345.569 230.997,359.439 233.451,365.362 251.285,358.126 z" class="building"/>
  <path d="M 91.261,115.530 L 0.000,185.294 0.182,185.533 91.443,115.769 z" class="barrier-fence"/>
  <path d="M 69.941,75.461 L 64.896,67.493 84.078,55.024 90.925,57.404 91.024,57.121 84.038,54.692 64.484,67.403 69.688,75.621 z" class="barrier-wall"/>
  <path d="M 106.913,257.771 L 83.537,275.538 76.158,265.920 99.434,248.086 106.913,257.771 z" class="building"/>
  <path d="M 51.306,74.217 L 50.076,75.129 39.436,82.977 47.206,92.707 55.717,104.117 66.270,118.511 78.140,109.304 51.306,74.217 z" class="building"/>
  <path d="M 193.808,431.719 L 205.692,426.042 206.049,424.261 193.458,429.582 193.808,431.719 z" class="natural-scrub"/>
  <path d="M 3.708,189.978 L 13.436,182.653 16.715,187.017 18.005,186.048 21.219,190.323 20.015,191.224 30.040,204.549 38.683,198.048 38.154,197.347 40.872,195.310 47.630,204.293 42.981,207.789 43.709,208.757 37.221,213.644 36.501,212.687 26.476,220.234 3.708,189.978 z" class="building"/>
  <path d="M 112.727,374.489 L 119.026,367.369 124.111,370.400 124.264,370.142 118.966,366.984 112.503,374.290 z" class="barrier-bollard"/>
  <path d="M 145.886,104.184 L 153.617,114.514 160.349,123.509 173.032,114.013 221.885,77.445 215.153,68.461 213.586,66.346 213.209,65.834 207.423,58.120 177.832,80.272 164.977,89.890 158.569,94.688 145.886,104.184 z" class="building"/>
  <path d="M 169.426,42.101 L 167.648,43.470 163.435,38.038 165.227,36.646 169.426,42.101 z" class="building"/>
  <path d="M 233.502,20.260 L 256.540,3.072 293.095,52.064 270.058,69.252 260.681,56.684 249.095,41.166 238.409,26.839 233.502,20.260 z" class="building"/>
  <path d="M 137.642,221.403 L 143.700,230.008 125.588,243.355 119.457,235.418 137.642,221.403 z" class="building"/>
  <path d="M 240.176,116.362 L 241.056,113.624 247.529,110.284 250.631,111.753 284.212,193.395 271.304,198.783 244.925,134.696 246.856,134.051 240.176,116.362 z" class="building"/>
  <path d="M 296.127,140.596 L 312.447,133.761 321.897,156.281 316.455,158.519 318.154,162.660 323.596,160.422 332.247,181.039 324.384,184.334 315.927,187.874 307.197,167.079 308.844,166.400 307.171,162.326 305.524,162.994 296.127,140.596 z" class="building"/>
  <path d="M 231.631,296.188 L 232.651,293.677 222.269,287.316 208.492,275.809 195.272,260.623 193.780,261.632 193.948,261.881 195.221,261.020 208.281,276.024 222.093,287.560 232.277,293.800 231.353,296.075 z" class="barrier-wall"/>
  <path d="M 173.643,224.512 L 171.026,226.512 180.917,241.423 181.167,241.258 171.431,226.580 173.826,224.751 z" class="barrier-wall"/>
  <path d="M 143.674,256.914 L 151.278,251.938 161.343,262.413 173.510,254.454 178.477,262.257 168.253,271.931 176.553,282.718 169.127,288.451 161.092,278.221 150.988,286.102 145.777,278.321 153.150,272.332 151.503,269.783 143.674,256.914 z" class="building"/>
  <path d="M 143.700,230.008 L 137.642,221.403 120.495,195.455 130.679,188.475 135.975,196.178 153.843,222.962 143.700,230.008 z" class="building"/>
  <path d="M 76.471,125.978 L 88.711,116.794 88.531,116.554 76.291,125.738 z" class="barrier-hedge"/>
  <path d="M 74.854,160.946 L 62.872,145.049 53.072,152.430 55.664,155.847 65.034,168.348 74.854,160.946 z" class="building"/>
  <path d="M 256.376,76.231 L 258.380,80.996 254.803,82.499 252.779,77.734 256.376,76.231 z" class="building"/>
  <path d="M 164.891,217.538 L 167.707,215.423 168.262,215.019 171.193,219.845 171.449,219.689 168.349,214.585 167.528,215.182 164.711,217.298 z" class="barrier-wall"/>
  <path d="M 237.109,395.585 L 258.012,387.993 238.628,332.734 225.601,337.576 241.499,379.789 232.532,383.217 237.109,395.585 z" class="building"/>
  <path d="M 49.653,219.333 L 24.618,238.090 30.748,245.649 55.764,227.247 49.653,219.333 z" class="building"/>
  <path d="M 139.969,102.733 L 138.274,102.501 136.225,101.691 134.857,100.720 133.624,99.380 107.274,62.981 104.845,60.066 101.851,57.193 98.789,54.867 95.359,52.812 86.640,48.257 86.501,48.523 95.213,53.074 98.621,55.116 101.656,57.421 104.626,60.270 107.037,63.166 133.391,99.570 134.658,100.946 136.081,101.957 138.197,102.794 139.928,103.030 z" class="barrier-wall"/>
  <path d="M 20.881,216.538 L 22.191,218.086 15.935,223.318 14.626,221.771 20.881,216.538 z" class="building"/>
  <path d="M 325.267,268.647 L 323.944,265.764 291.873,280.503 286.563,282.941 288.150,286.403 286.781,287.037 290.881,295.954 291.661,295.586 293.017,298.536 294.558,297.835 314.973,342.252 313.902,342.753 315.641,346.537 314.590,347.016 318.604,355.755 319.834,355.187 321.302,358.404 324.522,356.923 345.319,347.361 349.803,345.302 347.680,340.682 342.845,330.162 342.383,329.149 325.566,336.886 321.916,328.938 320.283,329.684 318.636,326.099 325.407,322.993 322.319,316.281 323.013,315.958 319.442,308.188 318.768,308.500 315.712,301.854 308.981,304.948 303.941,293.983 329.856,282.050 326.636,275.104 329.869,273.645 330.729,273.067 331.212,272.220 331.291,271.219 330.821,269.894 330.081,268.547 329.168,267.668 328.685,267.590 327.376,267.668 325.267,268.647 z" class="building"/>
  <path d="M 29.619,161.393 L 2.877,181.520 3.058,181.760 29.799,161.633 z" class="barrier-hedge"/>
  <path d="M 289.682,214.323 L 291.864,219.522 295.157,218.141 292.975,212.932 289.682,214.323 z" class="building"/>
  <path d="M 315.752,412.012 L 310.993,416.023 307.886,412.323 312.942,408.078 312.749,407.849 307.463,412.287 310.956,416.446 315.945,412.242 z" class="barrier-retaining_wall"/>
  <path d="M 23.910,174.771 L 33.756,167.224 36.262,170.530 45.943,183.132 35.568,190.534 23.910,174.771 z" class="building"/>
  <path d="M 368.612,245.422 L 360.365,249.018 335.637,260.357 335.206,261.761 334.935,262.861 336.820,267.193 337.095,267.073 335.251,262.834 335.495,261.841 335.884,260.573 360.487,249.292 368.732,245.697 z" class="barrier-fence"/>
</svg>
