<?xml version="1.0" encoding="UTF-8"?>
<svg width="508px" height="579px" viewport="0 0 508 579" version="1.1" xmlns="http://www.w3.org/2000/svg" xmlns:svg="http://www.w3.org/2000/svg">
  <style>
    .natural-tree {fill: #00ff00; stroke: none}
    .barrier-wall {fill: #000000; stroke: none}
    .barrier-retaining_wall {fill: #000000; stroke: none}
    .barrier-bollard {fill: #ff0000; stroke: none}
    .barrier-lift_gate {fill: #ff0000; stroke: none}
    .building {fill: #000000; stroke: none}
  </style>
  <desc>Document origin (bottom-left corner): lat=53.5525418, lon=10.0181853</desc>

  <circle id="1" cx="322.688" cy="486.010" r="0.100" class="natural-tree" cfd="128" />
  <circle id="2" cx="301.137" cy="272.310" r="0.100" class="natural-tree" cfd="128" />
  <circle id="3" cx="198.237" cy="281.360" r="0.100" class="natural-tree" cfd="128" />
  <circle id="4" cx="272.411" cy="260.109" r="0.100" class="natural-tree" cfd="128" />
  <circle id="5" cx="250.988" cy="85.783" r="0.100" class="barrier-bollard" cfd="128" />
  <circle id="6" cx="147.796" cy="340.582" r="0.100" class="natural-tree" cfd="128" />
  <circle id="7" cx="260.044" cy="473.108" r="0.100" class="barrier-bollard" cfd="128" />
  <circle id="8" cx="207.129" cy="207.900" r="0.100" class="natural-tree" cfd="128" />
  <circle id="9" cx="507.220" cy="111.987" r="0.100" class="barrier-gate" cfd="128" />
  <circle id="10" cx="195.634" cy="107.401" r="0.100" class="natural-tree" cfd="128" />
  <circle id="11" cx="378.631" cy="432.710" r="0.100" class="natural-tree" cfd="128" />
  <circle id="12" cx="207.485" cy="150.638" r="0.100" class="natural-tree" cfd="128" />
  <circle id="13" cx="92.729" cy="64.343" r="0.100" class="natural-tree" cfd="128" />
  <circle id="14" cx="306.436" cy="333.352" r="0.100" class="barrier-bollard" cfd="128" />
  <circle id="15" cx="192.390" cy="495.551" r="0.100" class="barrier-bollard" cfd="128" />
  <circle id="16" cx="437.186" cy="265.063" r="0.100" class="barrier-gate" cfd="128" />
  <circle id="17" cx="203.475" cy="33.663" r="0.100" class="natural-tree" cfd="128" />
  <circle id="18" cx="233.348" cy="188.464" r="0.100" class="natural-tree" cfd="128" />
  <circle id="19" cx="291.502" cy="494.169" r="0.100" class="natural-tree" cfd="128" />
  <circle id="20" cx="212.028" cy="137.502" r="0.100" class="barrier-bollard" cfd="128" />
  <circle id="21" cx="250.366" cy="89.367" r="0.100" class="barrier-bollard" cfd="128" />
  <circle id="22" cx="88.120" cy="86.328" r="0.100" class="natural-tree" cfd="128" />
  <circle id="23" cx="99.202" cy="51.396" r="0.100" class="natural-tree" cfd="128" />
  <circle id="24" cx="283.046" cy="317.272" r="0.100" class="natural-tree" cfd="128" />
  <circle id="25" cx="224.692" cy="175.373" r="0.100" class="natural-tree" cfd="128" />
  <circle id="26" cx="250.174" cy="84.770" r="0.100" class="barrier-bollard" cfd="128" />
  <circle id="27" cx="301.159" cy="335.612" r="0.100" class="barrier-bollard" cfd="128" />
  <circle id="28" cx="295.993" cy="303.090" r="0.100" class="natural-tree" cfd="128" />
  <circle id="29" cx="165.712" cy="96.714" r="0.100" class="natural-tree" cfd="128" />
  <circle id="30" cx="191.185" cy="175.773" r="0.100" class="natural-tree" cfd="128" />
  <circle id="31" cx="249.368" cy="83.746" r="0.100" class="barrier-bollard" cfd="128" />
  <circle id="32" cx="311.072" cy="350.178" r="0.100" class="barrier-bollard" cfd="128" />
  <circle id="33" cx="146.440" cy="321.825" r="0.100" class="natural-tree" cfd="128" />
  <circle id="34" cx="309.074" cy="332.222" r="0.100" class="barrier-bollard" cfd="128" />
  <circle id="35" cx="165.994" cy="306.574" r="0.100" class="natural-tree" cfd="128" />
  <circle id="36" cx="230.379" cy="482.036" r="0.100" class="barrier-bollard" cfd="128" />
  <circle id="37" cx="224.025" cy="236.743" r="0.100" class="natural-tree" cfd="128" />
  <circle id="38" cx="252.119" cy="91.727" r="0.100" class="barrier-bollard" cfd="128" />
  <circle id="39" cx="249.520" cy="82.065" r="0.100" class="barrier-bollard" cfd="128" />
  <circle id="40" cx="306.871" cy="298.715" r="0.100" class="natural-tree" cfd="128" />
  <circle id="41" cx="87.670" cy="58.409" r="0.100" class="natural-tree" cfd="128" />
  <circle id="42" cx="296.229" cy="236.354" r="0.100" class="natural-tree" cfd="128" />
  <circle id="43" cx="371.212" cy="444.354" r="0.100" class="natural-tree" cfd="128" />
  <circle id="44" cx="258.030" cy="96.213" r="0.100" class="barrier-lift_gate" cfd="128" />
  <circle id="45" cx="258.643" cy="502.363" r="0.100" class="natural-tree" cfd="128" />
  <circle id="46" cx="60.771" cy="107.201" r="0.100" class="natural-tree" cfd="128" />
  <circle id="47" cx="386.604" cy="67.994" r="0.100" class="barrier-bollard" cfd="128" />
  <circle id="48" cx="130.593" cy="106.733" r="0.100" class="natural-tree" cfd="128" />
  <circle id="49" cx="193.414" cy="198.449" r="0.100" class="barrier-lift_gate" cfd="128" />
  <circle id="50" cx="246.230" cy="207.956" r="0.100" class="natural-tree" cfd="128" />
  <circle id="51" cx="170.414" cy="116.763" r="0.100" class="natural-tree" cfd="128" />
  <circle id="52" cx="200.594" cy="140.541" r="0.100" class="natural-tree" cfd="128" />
  <circle id="53" cx="251.457" cy="80.718" r="0.100" class="barrier-bollard" cfd="128" />
  <circle id="54" cx="382.312" cy="544.697" r="0.100" class="barrier-lift_gate" cfd="128" />
  <circle id="55" cx="184.689" cy="375.336" r="0.100" class="barrier-swing_gate" cfd="128" />
  <circle id="56" cx="347.691" cy="479.765" r="0.100" class="natural-tree" cfd="128" />
  <circle id="57" cx="272.571" cy="88.154" r="0.100" class="barrier-bollard" cfd="128" />
  <circle id="58" cx="175.774" cy="298.960" r="0.100" class="natural-tree" cfd="128" />
  <circle id="59" cx="268.945" cy="245.994" r="0.100" class="natural-tree" cfd="128" />
  <circle id="60" cx="307.322" cy="351.447" r="0.100" class="barrier-bollard" cfd="128" />
  <circle id="61" cx="211.699" cy="214.669" r="0.100" class="natural-tree" cfd="128" />
  <circle id="62" cx="333.104" cy="309.680" r="0.100" class="barrier-bollard" cfd="128" />
  <circle id="63" cx="368.536" cy="505.535" r="0.100" class="barrier-bollard" cfd="128" />
  <circle id="64" cx="370.879" cy="216.906" r="0.100" class="barrier-gate" cfd="128" />
  <circle id="65" cx="177.628" cy="82.465" r="0.100" class="natural-tree" cfd="128" />
  <circle id="66" cx="211.340" cy="155.469" r="0.100" class="natural-tree" cfd="128" />
  <circle id="67" cx="35.246" cy="127.784" r="0.100" class="natural-tree" cfd="128" />
  <circle id="68" cx="92.729" cy="61.248" r="0.100" class="natural-tree" cfd="128" />
  <circle id="69" cx="166.368" cy="510.556" r="0.100" class="natural-tree" cfd="128" />
  <circle id="70" cx="195.845" cy="40.120" r="0.100" class="natural-tree" cfd="128" />
  <circle id="71" cx="229.083" cy="182.018" r="0.100" class="natural-tree" cfd="128" />
  <circle id="72" cx="323.098" cy="279.868" r="0.100" class="natural-tree" cfd="128" />
  <circle id="73" cx="285.134" cy="495.472" r="0.100" class="natural-tree" cfd="128" />
  <circle id="74" cx="81.150" cy="91.649" r="0.100" class="natural-tree" cfd="128" />
  <circle id="75" cx="420.433" cy="488.937" r="0.100" class="natural-tree" cfd="128" />
  <circle id="76" cx="306.726" cy="320.288" r="0.100" class="natural-tree" cfd="128" />
  <circle id="77" cx="252.608" cy="87.820" r="0.100" class="barrier-bollard" cfd="128" />
  <circle id="78" cx="316.267" cy="486.978" r="0.100" class="natural-tree" cfd="128" />
  <circle id="79" cx="339.981" cy="305.572" r="0.100" class="natural-tree" cfd="128" />
  <circle id="80" cx="209.267" cy="273.378" r="0.100" class="natural-tree" cfd="128" />
  <circle id="81" cx="161.368" cy="93.520" r="0.100" class="natural-tree" cfd="128" />
  <circle id="82" cx="180.003" cy="158.552" r="0.100" class="natural-tree" cfd="128" />
  <circle id="83" cx="264.839" cy="472.006" r="0.100" class="barrier-bollard" cfd="128" />
  <circle id="84" cx="262.412" cy="472.562" r="0.100" class="barrier-bollard" cfd="128" />
  <circle id="85" cx="303.797" cy="334.482" r="0.100" class="barrier-bollard" cfd="128" />
  <circle id="86" cx="151.327" cy="318.006" r="0.100" class="natural-tree" cfd="128" />
  <circle id="87" cx="298.520" cy="336.741" r="0.100" class="barrier-bollard" cfd="128" />
  <circle id="88" cx="182.613" cy="407.953" r="0.100" class="barrier-bollard" cfd="128" />
  <circle id="89" cx="196.072" cy="184.701" r="0.100" class="barrier-bollard" cfd="128" />
  <circle id="90" cx="138.574" cy="85.716" r="0.100" class="natural-tree" cfd="128" />
  <circle id="91" cx="8.114" cy="147.398" r="0.100" class="natural-tree" cfd="128" />
  <circle id="92" cx="367.465" cy="500.815" r="0.100" class="barrier-bollard" cfd="128" />
  <circle id="93" cx="301.667" cy="292.536" r="0.100" class="natural-tree" cfd="128" />
  <circle id="94" cx="230.546" cy="248.632" r="0.100" class="natural-tree" cfd="128" />
  <circle id="95" cx="92.193" cy="57.875" r="0.100" class="natural-tree" cfd="128" />
  <circle id="96" cx="214.087" cy="490.158" r="0.100" class="barrier-bollard" cfd="128" />
  <circle id="97" cx="250.556" cy="504.277" r="0.100" class="natural-tree" cfd="128" />
  <circle id="98" cx="227.861" cy="250.792" r="0.100" class="barrier-lift_gate" cfd="128" />
  <circle id="99" cx="54.257" cy="112.177" r="0.100" class="natural-tree" cfd="128" />
  <circle id="100" cx="85.455" cy="35.878" r="0.100" class="natural-tree" cfd="128" />
  <circle id="101" cx="96.366" cy="50.873" r="0.100" class="natural-tree" cfd="128" />
  <circle id="102" cx="196.730" cy="494.472" r="0.100" class="barrier-bollard" cfd="128" />
  <circle id="103" cx="157.996" cy="144.159" r="0.100" class="natural-tree" cfd="128" />
  <circle id="104" cx="287.920" cy="322.771" r="0.100" class="natural-tree" cfd="128" />
  <circle id="105" cx="392.521" cy="504.021" r="0.100" class="natural-tree" cfd="128" />
  <circle id="106" cx="178.581" cy="110.529" r="0.100" class="natural-tree" cfd="128" />
  <circle id="107" cx="334.352" cy="435.526" r="0.100" class="natural-tree" cfd="128" />
  <circle id="108" cx="122.865" cy="312.574" r="0.100" class="natural-tree" cfd="128" />
  <circle id="109" cx="335.411" cy="482.158" r="0.100" class="natural-tree" cfd="128" />
  <circle id="110" cx="294.486" cy="333.146" r="0.100" class="natural-tree" cfd="128" />
  <circle id="111" cx="248.554" cy="82.733" r="0.100" class="barrier-bollard" cfd="128" />
  <circle id="112" cx="227.105" cy="486.921" r="0.100" class="barrier-bollard" cfd="128" />
  <circle id="113" cx="180.660" cy="295.152" r="0.100" class="natural-tree" cfd="128" />
  <circle id="114" cx="400.593" cy="296.633" r="0.100" class="barrier-lift_gate" cfd="128" />
  <circle id="115" cx="256.343" cy="278.488" r="0.100" class="natural-tree" cfd="128" />
  <circle id="116" cx="205.646" cy="118.856" r="0.100" class="natural-tree" cfd="128" />
  <circle id="117" cx="161.107" cy="310.392" r="0.100" class="natural-tree" cfd="128" />
  <circle id="118" cx="315.304" cy="348.764" r="0.100" class="barrier-bollard" cfd="128" />
  <circle id="119" cx="219.370" cy="230.275" r="0.100" class="natural-tree" cfd="128" />
  <circle id="120" cx="332.734" cy="314.734" r="0.100" class="barrier-bollard" cfd="128" />
  <circle id="121" cx="251.490" cy="88.588" r="0.100" class="barrier-bollard" cfd="128" />
  <circle id="122" cx="291.435" cy="229.507" r="0.100" class="natural-tree" cfd="128" />
  <circle id="123" cx="225.580" cy="251.961" r="0.100" class="barrier-bollard" cfd="128" />
  <circle id="124" cx="361.101" cy="444.354" r="0.100" class="natural-tree" cfd="128" />
  <circle id="125" cx="136.445" cy="114.626" r="0.100" class="natural-tree" cfd="128" />
  <circle id="126" cx="241.898" cy="201.399" r="0.100" class="natural-tree" cfd="128" />
  <circle id="127" cx="104.519" cy="52.465" r="0.100" class="natural-tree" cfd="128" />
  <circle id="128" cx="250.492" cy="81.386" r="0.100" class="barrier-bollard" cfd="128" />
  <circle id="129" cx="297.930" cy="492.132" r="0.100" class="natural-tree" cfd="128" />
  <circle id="130" cx="317.273" cy="311.071" r="0.100" class="natural-tree" cfd="128" />
  <circle id="131" cx="95.070" cy="81.029" r="0.100" class="natural-tree" cfd="128" />
  <circle id="132" cx="309.674" cy="489.216" r="0.100" class="natural-tree" cfd="128" />
  <circle id="133" cx="334.922" cy="306.184" r="0.100" class="natural-tree" cfd="128" />
  <circle id="134" cx="187.200" cy="289.342" r="0.100" class="natural-tree" cfd="128" />
  <circle id="135" cx="193.916" cy="136.177" r="0.100" class="natural-tree" cfd="128" />
  <circle id="136" cx="286.966" cy="270.228" r="0.100" class="natural-tree" cfd="128" />
  <circle id="137" cx="197.997" cy="194.353" r="0.100" class="natural-tree" cfd="128" />
  <circle id="138" cx="192.297" cy="199.028" r="0.100" class="barrier-bollard" cfd="128" />
  <circle id="139" cx="201.069" cy="493.394" r="0.100" class="barrier-bollard" cfd="128" />
  <circle id="140" cx="232.989" cy="116.284" r="0.100" class="barrier-lift_gate" cfd="128" />
  <circle id="141" cx="342.043" cy="448.451" r="0.100" class="natural-tree" cfd="128" />
  <circle id="142" cx="188.051" cy="496.630" r="0.100" class="barrier-bollard" cfd="128" />
  <circle id="143" cx="400.804" cy="280.414" r="0.100" class="barrier-swing_gate" cfd="128" />
  <circle id="144" cx="197.044" cy="185.770" r="0.100" class="barrier-bollard" cfd="128" />
  <circle id="145" cx="215.196" cy="160.300" r="0.100" class="natural-tree" cfd="128" />
  <circle id="146" cx="302.917" cy="325.342" r="0.100" class="barrier-bollard" cfd="128" />
  <circle id="147" cx="0.100" cy="153.510" r="0.100" class="natural-tree" cfd="128" />
  <circle id="148" cx="87.406" cy="62.662" r="0.100" class="natural-tree" cfd="128" />
  <circle id="149" cx="419.250" cy="502.619" r="0.100" class="natural-tree" cfd="128" />
  <circle id="150" cx="272.709" cy="498.500" r="0.100" class="natural-tree" cfd="128" />
  <circle id="151" cx="74.882" cy="96.436" r="0.100" class="natural-tree" cfd="128" />
  <circle id="152" cx="108.599" cy="48.212" r="0.100" class="natural-tree" cfd="128" />
  <circle id="153" cx="103.190" cy="43.682" r="0.100" class="natural-tree" cfd="128" />
  <circle id="154" cx="153.387" cy="140.084" r="0.100" class="natural-tree" cfd="128" />
  <circle id="155" cx="166.335" cy="152.853" r="0.100" class="natural-tree" cfd="128" />
  <circle id="156" cx="254.807" cy="220.936" r="0.100" class="natural-tree" cfd="128" />
  <circle id="157" cx="163.054" cy="108.425" r="0.100" class="natural-tree" cfd="128" />
  <circle id="158" cx="164.999" cy="132.281" r="0.100" class="natural-tree" cfd="128" />
  <circle id="159" cx="117.496" cy="305.895" r="0.100" class="natural-tree" cfd="128" />
  <circle id="160" cx="379.512" cy="472.006" r="0.100" class="natural-tree" cfd="128" />
  <circle id="161" cx="209.748" cy="491.236" r="0.100" class="barrier-bollard" cfd="128" />
  <circle id="162" cx="156.220" cy="314.199" r="0.100" class="natural-tree" cfd="128" />
  <circle id="163" cx="280.135" cy="269.427" r="0.100" class="natural-tree" cfd="128" />
  <circle id="164" cx="141.553" cy="325.632" r="0.100" class="natural-tree" cfd="128" />
  <circle id="165" cx="188.995" cy="400.739" r="0.100" class="barrier-bollard" cfd="128" />
  <circle id="166" cx="202.560" cy="201.121" r="0.100" class="natural-tree" cfd="128" />
  <circle id="167" cx="367.994" cy="503.164" r="0.100" class="barrier-bollard" cfd="128" />
  <circle id="168" cx="274.176" cy="232.758" r="0.100" class="natural-tree" cfd="128" />
  <circle id="169" cx="87.941" cy="51.752" r="0.100" class="natural-tree" cfd="128" />
  <circle id="170" cx="284.604" cy="219.756" r="0.100" class="natural-tree" cfd="128" />
  <circle id="171" cx="224.641" cy="252.539" r="0.100" class="barrier-bollard" cfd="128" />
  <circle id="172" cx="378.650" cy="83.334" r="0.100" class="barrier-cycle_barrier" cfd="128" />
  <circle id="173" cx="218.426" cy="489.079" r="0.100" class="barrier-bollard" cfd="128" />
  <circle id="174" cx="188.499" cy="95.690" r="0.100" class="natural-tree" cfd="128" />
  <circle id="175" cx="374.029" cy="435.526" r="0.100" class="natural-tree" cfd="128" />
  <circle id="176" cx="394.915" cy="509.788" r="0.100" class="natural-tree" cfd="128" />
  <circle id="177" cx="47.625" cy="117.242" r="0.100" class="natural-tree" cfd="128" />
  <circle id="178" cx="261.475" cy="88.210" r="0.100" class="barrier-bollard" cfd="128" />
  <circle id="179" cx="187.971" cy="136.266" r="0.100" class="natural-tree" cfd="128" />
  <circle id="180" cx="454.429" cy="52.053" r="0.100" class="barrier-gate" cfd="128" />
  <circle id="181" cx="238.089" cy="195.644" r="0.100" class="natural-tree" cfd="128" />
  <circle id="182" cx="330.683" cy="291.345" r="0.100" class="natural-tree" cfd="128" />
  <circle id="183" cx="334.867" cy="432.075" r="0.100" class="natural-tree" cfd="128" />
  <circle id="184" cx="251.537" cy="90.937" r="0.100" class="barrier-bollard" cfd="128" />
  <circle id="185" cx="282.953" cy="306.451" r="0.100" class="natural-tree" cfd="128" />
  <circle id="186" cx="203.752" cy="277.375" r="0.100" class="natural-tree" cfd="128" />
  <circle id="187" cx="170.678" cy="103.371" r="0.100" class="natural-tree" cfd="128" />
  <circle id="188" cx="244.181" cy="245.459" r="0.100" class="natural-tree" cfd="128" />
  <circle id="189" cx="211.683" cy="122.618" r="0.100" class="natural-tree" cfd="128" />
  <circle id="190" cx="332.939" cy="311.973" r="0.100" class="barrier-bollard" cfd="128" />
  <circle id="191" cx="191.358" cy="199.607" r="0.100" class="barrier-bollard" cfd="128" />
  <circle id="192" cx="335.462" cy="418.628" r="0.100" class="barrier-bollard" cfd="128" />
  <circle id="193" cx="231.444" cy="485.843" r="0.100" class="barrier-bollard" cfd="128" />
  <circle id="194" cx="410.266" cy="112.934" r="0.100" class="barrier-gate" cfd="128" />
  <circle id="195" cx="192.574" cy="184.690" r="0.100" class="barrier-bollard" cfd="128" />
  <circle id="196" cx="17.022" cy="140.597" r="0.100" class="natural-tree" cfd="128" />
  <circle id="197" cx="312.075" cy="304.893" r="0.100" class="natural-tree" cfd="128" />
  <circle id="198" cx="84.833" cy="58.320" r="0.100" class="natural-tree" cfd="128" />
  <circle id="199" cx="360.368" cy="476.826" r="0.100" class="natural-tree" cfd="128" />
  <circle id="200" cx="318.264" cy="269.449" r="0.100" class="natural-tree" cfd="128" />
  <circle id="201" cx="266.830" cy="500.081" r="0.100" class="natural-tree" cfd="128" />
  <circle id="202" cx="68.765" cy="101.100" r="0.100" class="natural-tree" cfd="128" />
  <circle id="203" cx="222.766" cy="488.000" r="0.100" class="barrier-bollard" cfd="128" />
  <circle id="204" cx="101.504" cy="54.680" r="0.100" class="natural-tree" cfd="128" />
  <circle id="205" cx="242.071" cy="475.824" r="0.100" class="barrier-bollard" cfd="128" />
  <circle id="206" cx="303.320" cy="490.941" r="0.100" class="natural-tree" cfd="128" />
  <circle id="207" cx="331.821" cy="302.555" r="0.100" class="natural-tree" cfd="128" />
  <circle id="208" cx="192.715" cy="285.356" r="0.100" class="natural-tree" cfd="128" />
  <circle id="209" cx="371.234" cy="510.077" r="0.100" class="barrier-lift_gate" cfd="128" />
  <circle id="210" cx="366.088" cy="475.100" r="0.100" class="natural-tree" cfd="128" />
  <circle id="211" cx="170.880" cy="302.767" r="0.100" class="natural-tree" cfd="128" />
  <circle id="212" cx="148.305" cy="332.812" r="0.100" class="natural-tree" cfd="128" />
  <circle id="213" cx="194.186" cy="403.834" r="0.100" class="barrier-bollard" cfd="128" />
  <circle id="214" cx="228.681" cy="243.222" r="0.100" class="natural-tree" cfd="128" />
  <circle id="215" cx="195.080" cy="183.633" r="0.100" class="barrier-bollard" cfd="128" />
  <circle id="216" cx="389.188" cy="503.865" r="0.100" class="barrier-bollard" cfd="128" />
  <circle id="217" cx="419.622" cy="400.761" r="0.100" class="natural-tree" cfd="128" />
  <circle id="218" cx="250.948" cy="90.158" r="0.100" class="barrier-bollard" cfd="128" />
  <circle id="219" cx="41.376" cy="122.006" r="0.100" class="natural-tree" cfd="128" />
  <circle id="220" cx="97.430" cy="37.392" r="0.100" class="natural-tree" cfd="128" />
  <circle id="221" cx="133.701" cy="110.997" r="0.100" class="natural-tree" cfd="128" />
  <circle id="222" cx="205.408" cy="492.315" r="0.100" class="barrier-bollard" cfd="128" />
  <circle id="223" cx="285.671" cy="89.679" r="0.100" class="barrier-lift_gate" cfd="128" />
  <circle id="224" cx="184.082" cy="118.344" r="0.100" class="natural-tree" cfd="128" />
  <circle id="225" cx="250.145" cy="213.889" r="0.100" class="natural-tree" cfd="128" />
  <circle id="226" cx="416.641" cy="429.894" r="0.100" class="natural-tree" cfd="128" />
  <circle id="227" cx="251.795" cy="86.796" r="0.100" class="barrier-bollard" cfd="128" />
  <circle id="228" cx="106.479" cy="293.171" r="0.100" class="natural-tree" cfd="128" />
  <circle id="229" cx="328.812" cy="483.728" r="0.100" class="natural-tree" cfd="128" />
  <circle id="230" cx="301.760" cy="318.162" r="0.100" class="natural-tree" cfd="128" />
  <path id="231" d="M 107.631,394.906 L 109.257,392.368 116.267,388.594 126.907,382.828 122.119,374.045 118.594,375.636 111.228,379.299 102.519,383.885 103.458,386.802 107.631,394.906 z" cfd="128" class="building"/>
  <path id="232" d="M 65.842,68.328 L 73.149,77.523 68.395,81.742 74.095,86.551 87.961,76.577 75.787,60.658 65.842,68.328 z" cfd="128" class="building"/>
  <path id="233" d="M 290.155,127.283 L 296.867,124.555 299.142,123.631 303.229,133.706 294.236,137.357 290.155,127.283 z" cfd="128" class="building"/>
  <path id="234" d="M 358.634,255.244 L 336.878,263.816 345.383,284.265 348.861,288.896 368.997,279.913 367.522,276.395 349.999,284.577 348.226,282.006 341.620,266.042 359.930,258.339 358.634,255.244 z" cfd="128" class="building"/>
  <path id="235" d="M 385.471,494.103 L 388.044,493.279 389.717,498.533 387.144,499.346 386.906,498.589 385.471,494.103 z" cfd="128" class="building"/>
  <path id="236" d="M 51.838,374.679 L 59.436,371.262 59.985,372.308 68.258,368.334 67.868,367.176 69.303,366.553 75.082,363.881 81.636,376.627 74.309,380.123 73.713,378.809 65.348,382.638 57.294,386.390 51.838,374.679 z" cfd="128" class="building"/>
  <path id="237" d="M 194.463,403.489 L 213.126,443.374 231.139,435.493 226.185,408.620 224.247,394.494 194.463,403.489 z" cfd="128" class="building"/>
  <path id="238" d="M 249.599,295.495 L 245.486,288.994 245.232,289.155 249.346,295.656 z" cfd="128" class="barrier-hedge"/>
  <path id="239" d="M 87.091,387.080 L 81.636,376.627 74.309,380.123 75.830,382.115 80.234,390.397 87.091,387.080 z" cfd="128" class="building"/>
  <path id="240" d="M 225.154,169.842 L 225.740,172.276 218.846,173.789 221.483,185.736 226.396,184.703 226.334,184.410 221.712,185.381 219.203,174.018 226.103,172.503 225.446,169.772 z" cfd="128" class="barrier-retaining_wall"/>
  <path id="241" d="M 99.798,195.195 L 130.342,171.506 130.158,171.269 99.614,194.958 z" cfd="128" class="barrier-hedge"/>
  <path id="242" d="M 449.616,73.415 L 419.430,95.423 453.091,141.821 471.109,128.685 492.573,113.034 477.852,92.751 468.555,99.520 449.616,73.415 z" cfd="128" class="building"/>
  <path id="243" d="M 264.364,226.617 L 261.316,231.966 251.550,226.678 253.488,223.406 253.230,223.253 251.134,226.793 261.431,232.370 264.625,226.765 z" cfd="128" class="barrier-wall"/>
  <path id="244" d="M 339.333,121.327 L 382.221,89.568 387.213,85.872 408.315,114.381 409.797,116.385 352.996,158.441 340.630,141.721 349.543,135.120 339.333,121.327 z" cfd="128" class="building"/>
  <path id="245" d="M 203.218,40.454 L 206.583,37.915 210.610,43.170 214.889,48.836 219.088,54.335 221.978,58.265 218.605,60.814 203.218,40.454 z" cfd="128" class="building"/>
  <path id="246" d="M 209.965,136.296 L 208.270,136.064 206.221,135.254 204.853,134.283 203.620,132.943 177.270,96.544 174.842,93.629 171.847,90.756 168.785,88.430 165.355,86.375 156.636,81.820 156.497,82.086 165.209,86.637 168.617,88.679 171.652,90.984 174.622,93.833 177.033,96.729 203.388,133.133 204.654,134.509 206.077,135.520 208.194,136.357 209.924,136.593 z" cfd="128" class="barrier-wall"/>
  <path id="247" d="M 214.630,225.796 L 215.542,227.128 221.657,224.913 237.489,248.948 237.740,248.783 221.777,224.550 215.659,226.766 214.878,225.627 z" cfd="128" class="barrier-wall"/>
  <path id="248" d="M 90.879,250.101 L 92.188,251.649 85.933,256.881 84.623,255.334 90.879,250.101 z" cfd="128" class="building"/>
  <path id="249" d="M 439.826,432.921 L 447.391,423.682 440.870,418.350 448.428,409.110 441.663,403.578 426.547,422.057 436.156,429.916 439.826,432.921 z" cfd="128" class="building"/>
  <path id="250" d="M 385.749,445.575 L 380.991,449.586 377.884,445.886 382.940,441.641 382.747,441.412 377.461,445.850 380.954,450.009 385.943,445.805 z" cfd="128" class="barrier-retaining_wall"/>
  <path id="251" d="M 332.675,240.092 L 337.580,236.485 339.925,235.478 339.807,235.203 337.431,236.222 332.497,239.851 z" cfd="128" class="barrier-fence"/>
  <path id="252" d="M 363.454,244.458 L 373.717,240.150 376.818,247.541 378.875,246.673 381.871,253.797 379.603,254.744 385.938,269.816 388.444,268.759 391.817,276.785 389.364,277.809 392.889,286.191 382.771,290.444 381.627,287.739 366.284,251.226 364.109,246.016 363.454,244.458 z" cfd="128" class="building"/>
  <path id="253" d="M 339.866,235.341 L 356.583,228.183 359.426,234.929 363.454,244.458 364.109,246.016 362.971,246.495 359.678,247.886 347.366,253.085 339.866,235.341 z" cfd="128" class="building"/>
  <path id="254" d="M 118.996,222.350 L 126.561,216.639 125.628,215.392 131.837,210.706 132.743,211.897 139.978,206.442 146.862,215.559 125.847,231.433 118.996,222.350 z" cfd="128" class="building"/>
  <path id="255" d="M 79.802,138.437 L 50.303,160.912 58.926,172.234 73.805,191.759 85.489,182.853 70.908,163.718 88.722,150.137 79.802,138.437 z" cfd="128" class="building"/>
  <path id="256" d="M 190.278,427.044 L 178.070,399.893 177.673,398.936 179.803,397.967 170.135,384.397 163.396,389.807 145.482,396.720 150.978,410.914 164.547,405.593 176.404,432.621 190.278,427.044 z" cfd="128" class="building"/>
  <path id="257" d="M 258.755,469.802 L 259.555,473.175 246.065,476.280 258.755,469.802 z" cfd="128" class="natural-scrub"/>
  <path id="258" d="M 170.126,160.898 L 171.101,158.270 170.195,154.912 166.976,150.627 165.493,149.204 161.029,144.941 152.346,136.609 143.406,125.813 138.809,114.506 135.866,109.137 131.660,102.922 127.288,106.258 127.470,106.496 131.589,103.353 135.609,109.294 138.538,114.635 143.146,125.969 152.126,136.814 160.822,145.158 165.285,149.421 166.751,150.826 169.920,155.046 170.787,158.256 169.844,160.793 z" cfd="128" class="barrier-wall"/>
  <path id="259" d="M 372.041,513.695 L 377.298,512.326 380.241,511.569 383.634,524.638 375.434,526.764 372.041,513.695 z" cfd="128" class="building"/>
  <path id="260" d="M 395.263,302.210 L 393.941,299.327 361.870,314.066 356.560,316.504 358.147,319.966 356.778,320.600 360.878,329.517 361.659,329.149 363.014,332.099 364.555,331.398 384.970,375.815 383.899,376.316 385.638,380.100 384.587,380.579 388.601,389.318 389.831,388.750 391.300,391.967 394.520,390.487 415.317,380.924 419.800,378.865 417.677,374.245 412.843,363.725 412.380,362.712 395.564,370.449 391.913,362.501 390.280,363.247 388.633,359.662 395.405,356.556 392.316,349.844 393.010,349.521 389.439,341.751 388.765,342.063 385.709,335.417 378.978,338.511 373.938,327.546 399.853,315.613 396.633,308.667 399.866,307.208 400.726,306.630 401.208,305.784 401.288,304.782 400.818,303.457 400.077,302.110 399.165,301.231 398.682,301.153 397.373,301.231 395.263,302.210 z" cfd="128" class="building"/>
  <path id="261" d="M 303.497,53.823 L 326.535,36.635 363.091,85.627 340.053,102.815 330.676,90.247 319.090,74.729 308.404,60.402 303.497,53.823 z" cfd="128" class="building"/>
  <path id="262" d="M 252.370,93.553 L 244.495,99.620 229.372,111.275 229.035,111.531 227.613,112.633 231.442,117.609 232.857,119.446 257.621,100.355 252.370,93.553 z" cfd="128" class="building"/>
  <path id="263" d="M 132.447,277.731 L 140.680,288.395 129.478,297.045 121.245,286.369 132.447,277.731 z" cfd="128" class="building"/>
  <path id="264" d="M 121.336,107.926 L 127.413,106.523 127.345,106.231 121.268,107.633 z" cfd="128" class="barrier-fence"/>
  <path id="265" d="M 272.979,450.811 L 228.362,458.803 222.073,447.404 236.938,438.855 251.605,430.506 261.458,428.803 271.364,427.122 272.979,450.811 z" cfd="128" class="building"/>
  <path id="266" d="M 285.111,514.975 L 280.343,516.199 277.837,516.830 277.104,513.948 284.266,512.126 284.192,511.835 276.739,513.731 277.620,517.194 280.417,516.490 285.185,515.265 z" cfd="128" class="barrier-retaining_wall"/>
  <path id="267" d="M 216.550,93.575 L 216.973,94.165 222.190,101.356 223.539,103.227 224.849,105.030 229.372,111.275 244.495,99.620 231.236,82.132 219.208,91.505 216.550,93.575 z" cfd="128" class="building"/>
  <path id="268" d="M 176.911,291.334 L 153.535,309.101 146.155,299.483 169.432,281.649 176.911,291.334 z" cfd="128" class="building"/>
  <path id="269" d="M 241.415,159.254 L 257.867,147.175 273.380,168.282 275.311,166.868 296.881,151.027 299.070,153.999 300.888,152.664 306.734,160.623 304.982,161.903 307.468,165.287 283.247,183.087 327.686,243.589 310.705,256.068 301.308,243.266 305.685,240.049 285.655,212.787 282.467,215.125 273.342,202.691 271.437,204.093 263.779,193.607 261.491,192.327 259.607,190.724 258.383,189.243 257.398,187.596 256.545,185.436 256.102,183.187 248.411,172.734 250.296,171.354 241.415,159.254 z" cfd="128" class="building"/>
  <path id="270" d="M 430.523,319.053 L 443.327,348.642 438.057,364.482 434.777,366.030 427.609,369.414 425.123,370.583 417.677,374.245 412.843,363.725 422.325,359.239 429.652,355.777 431.946,349.120 420.730,323.327 430.523,319.053 z" cfd="128" class="building"/>
  <path id="271" d="M 129.108,342.140 L 131.740,345.068 137.870,351.859 137.368,352.315 139.524,354.697 145.250,361.054 144.622,361.621 147.552,364.872 153.139,371.072 144.530,378.831 135.986,369.358 136.442,368.946 127.707,359.250 128.441,358.582 119.950,349.165 121.120,348.107 106.949,332.389 115.268,324.886 118.018,327.936 118.336,327.647 119.387,328.816 120.591,330.151 119.764,330.886 124.929,336.608 125.656,335.951 126.304,336.675 127.845,338.389 127.184,338.990 129.617,341.684 129.108,342.140 z" cfd="128" class="building"/>
  <path id="272" d="M 277.467,297.541 L 279.253,298.603 281.238,299.509 283.962,299.601 286.138,298.599 287.956,297.241 288.856,295.079 290.001,292.624 291.731,290.885 293.890,290.104 296.249,290.104 298.798,290.369 301.549,291.259 304.074,291.531 306.535,290.799 307.925,289.327 308.562,286.851 307.475,283.955 305.949,281.441 303.362,279.118 301.051,277.335 298.854,275.579 297.801,274.082 296.088,271.650 294.082,270.929 291.808,270.472 289.606,271.474 288.067,273.201 286.549,275.880 285.045,278.979 283.741,280.802 281.392,282.185 278.800,282.619 276.208,281.675 274.725,280.273 273.043,278.596 271.359,276.729 269.558,274.749 266.413,273.846 263.680,273.149 261.231,271.746 258.731,269.025 257.020,266.165 255.527,262.352 255.527,259.115 256.358,255.821 257.763,253.059 260.369,250.138 263.128,245.961 265.525,241.792 267.394,238.323 269.347,233.964 271.119,229.712 272.340,227.011 273.937,226.168 275.661,226.427 275.706,226.131 273.885,225.856 272.109,226.794 270.844,229.592 269.072,233.845 267.124,238.191 265.263,241.646 262.873,245.804 260.131,249.954 257.513,252.888 256.075,255.715 255.227,259.077 255.227,262.408 256.749,266.298 258.490,269.205 261.042,271.983 263.566,273.430 266.335,274.135 269.393,275.014 271.136,276.930 272.825,278.803 274.516,280.488 276.047,281.936 278.772,282.928 281.497,282.472 283.948,281.028 285.303,279.133 286.814,276.020 288.312,273.377 289.788,271.721 291.844,270.785 294.001,271.219 295.897,271.901 297.556,274.255 298.633,275.787 300.866,277.571 303.170,279.349 305.716,281.635 307.204,284.086 308.248,286.868 307.654,289.178 306.373,290.534 304.046,291.226 301.612,290.964 298.861,290.073 296.265,289.804 293.837,289.804 291.566,290.626 289.751,292.449 288.582,294.958 287.710,297.050 285.984,298.340 283.901,299.298 281.308,299.211 279.392,298.337 277.620,297.283 z" cfd="128" class="barrier-wall"/>
  <path id="273" d="M 316.849,97.393 L 322.775,111.297 324.798,116.062 330.849,130.255 335.472,141.109 345.491,164.630 370.535,223.485 357.495,228.817 357.158,227.949 317.141,130.043 314.748,131.023 313.518,128.017 311.924,128.674 309.424,122.563 313.134,121.049 308.987,110.896 307.374,111.553 302.943,100.722 303.161,98.818 304.041,97.405 305.654,96.336 307.671,96.080 309.311,96.625 310.673,97.872 311.454,99.687 316.849,97.393 z" cfd="128" class="building"/>
  <path id="274" d="M 183.830,64.777 L 184.835,66.135 186.422,64.944 188.102,63.697 187.097,62.339 183.830,64.777 z" cfd="128" class="building"/>
  <path id="275" d="M 207.639,254.966 L 213.697,263.571 195.585,276.918 189.455,268.981 207.639,254.966 z" cfd="128" class="building"/>
  <path id="276" d="M 111.228,379.299 L 109.819,376.460 107.604,377.562 104.615,371.540 114.190,366.775 115.308,369.024 118.594,375.636 111.228,379.299 z" cfd="128" class="building"/>
  <path id="277" d="M 75.578,297.657 L 70.592,292.013 78.904,284.555 83.321,289.453 90.258,297.156 94.834,302.221 86.515,309.724 75.578,297.657 z" cfd="128" class="building"/>
  <path id="278" d="M 146.468,159.541 L 158.708,150.357 158.528,150.117 146.288,159.301 z" cfd="128" class="barrier-hedge"/>
  <path id="279" d="M 121.302,107.780 L 120.072,108.692 109.433,116.540 117.203,126.270 125.713,137.680 136.267,152.074 148.137,142.867 121.302,107.780 z" cfd="128" class="building"/>
  <path id="280" d="M 153.535,309.101 L 136.739,321.546 129.571,312.585 146.155,299.483 153.535,309.101 z" cfd="128" class="building"/>
  <path id="281" d="M 358.343,254.565 L 361.861,253.085 365.154,251.705 366.284,251.226 381.627,287.739 375.193,290.433 374.552,288.907 370.504,279.278 368.997,279.913 367.522,276.395 359.930,258.339 358.634,255.244 358.343,254.565 z" cfd="128" class="building"/>
  <path id="282" d="M 410.370,526.474 L 400.174,539.187 390.638,549.629 380.911,559.648 368.949,570.646 375.926,578.416 388.357,567.295 399.288,556.375 418.696,534.167 423.907,526.808 433.548,512.838 440.464,501.739 446.938,490.240 451.566,481.268 443.763,476.314 437.640,486.867 424.124,507.483 410.370,526.474 z" cfd="128" class="building"/>
  <path id="283" d="M 100.647,279.098 L 98.450,281.012 113.942,298.473 115.183,297.307 115.973,298.233 116.776,299.191 115.447,300.186 124.788,310.240 132.375,304.209 132.189,303.974 124.818,309.832 115.894,300.226 117.210,299.241 116.202,298.039 115.206,296.872 113.961,298.043 98.875,281.040 100.844,279.325 z" cfd="128" class="barrier-fence"/>
  <path id="284" d="M 413.935,491.611 L 407.353,493.648 405.907,488.992 412.403,486.988 412.315,486.701 405.532,488.794 407.155,494.023 414.024,491.897 z" cfd="128" class="barrier-retaining_wall"/>
  <path id="285" d="M 259.570,283.691 L 255.943,287.252 251.709,282.276 251.481,282.470 255.923,287.691 259.781,283.905 z" cfd="128" class="barrier-wall"/>
  <path id="286" d="M 310.172,149.925 L 311.052,147.187 317.525,143.847 320.627,145.316 354.209,226.958 341.301,232.346 314.921,168.259 316.852,167.614 310.172,149.925 z" cfd="128" class="building"/>
  <path id="287" d="M 113.247,63.468 L 107.337,68.182 109.620,71.043 115.523,66.330 115.336,66.096 109.667,70.622 107.758,68.229 113.434,63.703 z" cfd="128" class="barrier-fence"/>
  <path id="288" d="M 317.973,265.953 L 326.761,259.497 339.860,249.879 332.586,239.971 327.686,243.589 310.705,256.068 314.666,261.445 317.973,265.953 z" cfd="128" class="building"/>
  <path id="289" d="M 106.260,204.093 L 125.661,189.410 123.069,185.993 121.052,183.321 101.644,198.004 103.753,200.787 106.260,204.093 z" cfd="128" class="building"/>
  <path id="290" d="M 379.063,4.976 L 352.812,18.991 363.810,35.845 387.217,22.898 380.479,9.418 383.137,5.332 385.802,3.740 387.931,5.867 394.134,16.152 400.164,13.136 406.545,6.590 414.262,13.603 406.479,16.297 398.155,22.320 393.400,23.088 366.528,42.079 360.279,41.912 354.552,34.565 348.508,29.010 340.579,9.729 362.757,0.000 379.063,4.976 z" cfd="128" class="natural-wood"/>
  <path id="291" d="M 199.742,490.663 L 180.393,497.943 170.018,502.207 164.727,482.748 192.144,471.761 199.742,490.663 z" cfd="128" class="building"/>
  <path id="292" d="M 338.013,116.341 L 314.702,84.159 314.459,84.335 337.770,116.517 z" cfd="128" class="barrier-retaining_wall"/>
  <path id="293" d="M 213.424,136.544 L 214.162,136.334 215.780,137.856 215.986,137.638 214.244,135.998 213.342,136.256 z" cfd="128" class="barrier-wall"/>
  <path id="294" d="M 325.265,423.571 L 315.168,430.116 303.019,414.788 318.004,409.266 325.265,423.571 z" cfd="128" class="building"/>
  <path id="295" d="M 265.407,471.839 L 272.675,469.980 274.361,462.711 264.250,467.230 265.407,471.839 z" cfd="128" class="natural-scrub"/>
  <path id="296" d="M 190.616,200.833 L 194.564,207.134 194.818,206.975 190.870,200.674 z" cfd="128" class="barrier-wall"/>
  <path id="297" d="M 419.274,140.251 L 431.176,135.275 439.588,155.380 437.261,156.348 442.492,168.872 430.689,173.814 423.427,156.448 425.662,155.524 419.274,140.251 z" cfd="128" class="building"/>
  <path id="298" d="M 99.616,194.956 L 72.875,215.083 73.055,215.323 99.797,195.196 z" cfd="128" class="barrier-hedge"/>
  <path id="299" d="M 145.156,250.213 L 159.439,239.181 175.528,226.758 167.308,216.105 119.651,252.896 125.761,260.810 127.877,263.549 145.156,250.213 z" cfd="128" class="building"/>
  <path id="300" d="M 301.628,329.751 L 302.648,327.240 292.266,320.879 278.489,309.372 265.270,294.186 263.778,295.195 263.946,295.444 265.218,294.583 278.278,309.587 292.090,321.123 302.274,327.363 301.350,329.638 z" cfd="128" class="barrier-wall"/>
  <path id="301" d="M 422.789,436.239 L 416.692,439.402 414.698,436.025 420.233,432.075 420.059,431.831 414.300,435.941 416.578,439.799 422.927,436.506 z" cfd="128" class="barrier-retaining_wall"/>
  <path id="302" d="M 60.217,454.217 L 53.479,440.736 82.390,426.376 84.162,427.255 86.999,426.287 86.470,424.328 98.796,419.541 113.873,414.576 112.895,411.292 127.886,406.149 136.753,403.043 142.374,400.717 141.402,398.145 145.482,396.720 150.978,410.914 153.193,416.769 149.563,418.005 150.270,420.220 136.165,425.463 157.717,484.963 164.727,482.748 170.018,502.207 125.348,509.710 113.286,512.637 109.384,501.283 138.567,491.353 119.144,436.194 90.054,446.302 87.746,439.556 79.236,442.662 80.208,444.443 72.848,447.894 60.217,454.217 z" cfd="128" class="building"/>
  <path id="303" d="M 419.122,302.388 L 431.693,296.577 428.717,290.143 433.379,288.028 437.849,285.924 438.880,288.151 442.187,286.614 445.864,294.451 437.770,298.192 440.653,304.425 414.262,316.637 411.333,310.303 407.709,312.029 399.853,315.613 396.633,308.667 399.866,307.208 400.726,306.630 401.208,305.784 401.288,304.782 400.818,303.457 403.252,302.388 406.955,300.696 408.112,300.128 416.298,296.288 419.122,302.388 z" cfd="128" class="building"/>
  <path id="304" d="M 368.173,462.664 L 374.430,473.417 374.689,473.266 368.433,462.513 z" cfd="128" class="barrier-yes"/>
  <path id="305" d="M 316.595,267.716 L 313.557,269.483 318.751,278.665 322.842,288.523 325.821,294.949 329.356,307.052 330.772,306.491 330.661,306.212 329.552,306.652 326.103,294.844 323.117,288.402 319.021,278.533 313.964,269.593 316.745,267.975 z" cfd="128" class="barrier-retaining_wall"/>
  <path id="306" d="M 442.924,264.703 L 438.057,266.896 432.179,269.535 432.302,269.808 438.180,267.170 443.047,264.977 z" cfd="128" class="barrier-fence"/>
  <path id="307" d="M 359.678,247.886 L 361.861,253.085 365.154,251.705 362.971,246.495 359.678,247.886 z" cfd="128" class="building"/>
  <path id="308" d="M 188.813,143.679 L 191.361,144.473 193.362,145.955 194.837,148.209 195.280,151.314 196.993,154.017 198.848,155.784 200.150,158.128 200.325,161.171 199.455,163.871 197.802,166.129 195.632,167.340 193.019,168.040 190.146,167.691 187.793,166.476 186.054,164.903 185.100,163.177 184.753,161.165 184.458,161.216 184.813,163.278 185.816,165.092 187.621,166.725 190.056,167.982 193.041,168.345 195.745,167.620 198.005,166.360 199.725,164.009 200.627,161.210 200.445,158.042 199.088,155.599 197.227,153.826 195.568,151.208 195.124,148.101 193.584,145.746 191.498,144.201 188.902,143.392 z" cfd="128" class="barrier-wall"/>
  <path id="309" d="M 243.641,258.075 L 241.023,260.075 250.914,274.986 251.164,274.821 241.428,260.143 243.823,258.314 z" cfd="128" class="barrier-wall"/>
  <path id="310" d="M 274.611,427.612 L 230.412,443.742 213.905,403.121 249.673,388.193 244.799,375.080 194.000,394.038 222.073,462.199 279.803,440.680 274.611,427.612 z" cfd="128" class="building"/>
  <path id="311" d="M 296.955,411.771 L 294.740,412.940 293.993,410.602 278.989,416.112 280.324,418.439 278.255,419.663 292.593,462.443 295.430,469.356 315.294,461.642 312.636,454.640 296.955,411.771 z" cfd="128" class="building"/>
  <path id="312" d="M 389.335,230.799 L 396.371,227.916 409.986,222.350 412.195,227.749 436.787,217.685 434.565,212.253 456.340,203.347 463.384,220.580 441.853,229.396 445.312,237.845 435.076,242.031 433.780,238.858 429.766,240.495 431.128,243.812 421.070,247.920 417.592,239.415 396.405,248.075 389.335,230.799 z" cfd="128" class="building"/>
  <path id="313" d="M 145.156,250.213 L 169.432,281.649 176.911,291.334 195.585,276.918 189.455,268.981 185.064,272.377 159.439,239.181 145.156,250.213 z" cfd="128" class="building"/>
  <path id="314" d="M 144.851,194.509 L 132.869,178.612 123.069,185.993 125.661,189.410 135.031,201.911 144.851,194.509 z" cfd="128" class="building"/>
  <path id="315" d="M 309.534,28.921 L 315.214,33.541 323.480,30.546 328.829,27.652 334.780,25.548 340.321,25.481 348.508,29.010 340.579,9.729 308.905,23.622 309.534,28.921 z" cfd="128" class="natural-wood"/>
  <path id="316" d="M 71.631,415.478 L 81.980,410.235 84.083,409.166 79.004,399.158 78.105,397.377 77.060,395.318 74.891,396.420 72.947,397.411 71.922,395.396 64.991,398.913 68.622,406.071 67.227,406.784 71.631,415.478 z" cfd="128" class="building"/>
  <path id="317" d="M 93.907,208.334 L 103.753,200.787 106.260,204.093 115.941,216.695 105.566,224.097 93.907,208.334 z" cfd="128" class="building"/>
  <path id="318" d="M 197.536,187.191 L 199.065,189.405 198.472,189.905 216.667,217.414 212.398,222.053 213.343,223.607 213.599,223.452 212.772,222.090 217.047,217.444 198.870,189.962 199.467,189.459 197.783,187.021 z" cfd="128" class="barrier-wall"/>
  <path id="319" d="M 97.089,321.457 L 86.515,309.724 94.834,302.221 100.091,308.054 105.408,313.954 97.089,321.457 z" cfd="128" class="building"/>
  <path id="320" d="M 215.883,137.747 L 223.613,148.077 230.345,157.072 243.028,147.576 291.881,111.008 285.149,102.024 283.582,99.909 283.205,99.397 277.418,91.683 247.828,113.835 234.973,123.453 228.566,128.251 215.883,137.747 z" cfd="128" class="building"/>
  <path id="321" d="M 157.470,338.155 L 154.938,339.936 156.710,343.966 173.149,338.934 175.384,344.489 183.571,338.779 184.893,339.959 191.685,346.649 189.271,348.886 193.318,357.358 177.607,364.249 181.846,374.267 205.751,363.169 205.427,362.356 212.191,359.050 215.147,365.685 245.308,352.237 244.938,351.402 249.189,349.220 250.003,351.057 286.300,334.894 281.221,323.494 265.098,297.858 252.885,303.245 253.414,304.203 251.767,304.915 252.845,307.431 254.498,306.730 259.266,316.915 233.404,327.992 237.511,337.031 238.371,336.697 239.356,338.834 211.391,351.436 205.724,347.773 217.508,338.667 213.017,330.029 207.297,334.537 197.636,324.752 215.774,311.884 223.147,305.895 221.501,303.346 209.915,312.173 209.062,310.670 202.040,304.025 196.637,308.043 200.380,313.765 194.310,318.407 188.047,312.084 182.830,316.248 186.586,321.891 181.084,325.854 172.825,318.274 167.356,322.415 170.887,328.192 165.584,332.645 159.236,326.055 153.192,330.363 157.470,338.155 z" cfd="128" class="building"/>
  <path id="322" d="M 340.405,114.736 L 319.138,86.216 318.898,86.396 340.165,114.916 z" cfd="128" class="barrier-retaining_wall"/>
  <path id="323" d="M 326.372,109.794 L 328.376,114.559 324.798,116.062 322.775,111.297 326.372,109.794 z" cfd="128" class="building"/>
  <path id="324" d="M 329.093,36.564 L 325.255,30.726 322.316,25.111 322.050,25.250 324.997,30.878 328.843,36.729 z" cfd="128" class="barrier-fence"/>
  <path id="325" d="M 290.103,472.072 L 283.391,473.772 282.128,468.775 288.715,467.108 288.641,466.818 281.764,468.558 283.173,474.136 290.176,472.363 z" cfd="128" class="barrier-retaining_wall"/>
  <path id="326" d="M 356.639,228.322 L 356.917,228.210 357.215,228.088 357.101,227.810 356.804,227.932 356.527,228.043 z" cfd="128" class="barrier-fence"/>
  <path id="327" d="M 161.258,149.093 L 69.997,218.857 70.180,219.096 161.440,149.332 z" cfd="128" class="barrier-fence"/>
  <path id="328" d="M 73.805,191.759 L 85.489,182.853 93.689,176.864 99.958,185.102 80.411,200.152 73.805,191.759 z" cfd="128" class="building"/>
  <path id="329" d="M 178.612,49.092 L 186.422,48.558 189.556,46.676 189.080,41.288 178.612,49.092 z" cfd="128" class="natural-grassland"/>
  <path id="330" d="M 263.807,465.282 L 275.690,459.605 276.047,457.824 263.456,463.145 263.807,465.282 z" cfd="128" class="natural-scrub"/>
  <path id="331" d="M 234.888,251.101 L 237.704,248.986 238.259,248.582 241.190,253.408 241.446,253.252 238.346,248.148 237.525,248.745 234.708,250.861 z" cfd="128" class="barrier-wall"/>
  <path id="332" d="M 139.938,109.024 L 134.892,101.056 154.074,88.587 160.922,90.967 161.020,90.684 154.034,88.255 134.480,100.966 139.684,109.184 z" cfd="128" class="barrier-wall"/>
  <path id="333" d="M 180.649,69.185 L 201.559,97.872 203.146,100.043 204.733,102.214 216.212,93.742 214.586,91.538 212.959,89.334 191.944,60.847 188.102,63.697 186.422,64.944 184.835,66.135 180.649,69.185 z" cfd="128" class="building"/>
  <path id="334" d="M 108.735,397.054 L 107.631,394.906 103.458,386.802 93.076,392.156 91.350,393.036 92.606,395.485 96.627,403.288 98.155,402.498 108.735,397.054 z" cfd="128" class="building"/>
  <path id="335" d="M 316.963,513.706 L 324.680,511.212 329.435,525.929 321.718,528.422 316.963,513.706 z" cfd="128" class="building"/>
  <path id="336" d="M 398.155,22.320 L 406.479,16.297 415.777,29.221 407.446,35.233 398.155,22.320 z" cfd="128" class="building"/>
  <path id="337" d="M 294.115,109.369 L 279.574,90.567 279.336,90.750 293.878,109.552 z" cfd="128" class="barrier-retaining_wall"/>
  <path id="338" d="M 438.608,278.985 L 430.361,282.581 405.634,293.920 405.203,295.324 404.932,296.424 406.817,300.756 407.092,300.636 405.247,296.397 405.492,295.404 405.881,294.136 430.484,282.855 438.728,279.260 z" cfd="128" class="barrier-fence"/>
  <path id="339" d="M 207.087,112.756 L 222.190,101.356 223.539,103.227 224.849,105.030 209.819,116.373 207.087,112.756 z" cfd="128" class="building"/>
  <path id="340" d="M 207.481,145.230 L 201.866,149.439 214.613,166.446 214.853,166.266 202.286,149.499 207.661,145.470 z" cfd="128" class="barrier-wall"/>
  <path id="341" d="M 247.412,477.561 L 255.473,475.484 256.714,480.291 250.359,481.924 250.434,482.214 257.080,480.507 255.689,475.118 247.337,477.271 z" cfd="128" class="barrier-retaining_wall"/>
  <path id="342" d="M 251.089,303.382 L 261.749,296.391 261.584,296.140 250.925,303.131 z" cfd="128" class="barrier-hedge"/>
  <path id="343" d="M 366.123,174.159 L 382.442,167.324 391.893,189.844 386.451,192.082 388.150,196.223 393.592,193.985 402.243,214.602 394.380,217.897 385.923,221.437 377.193,200.642 378.840,199.963 377.167,195.889 375.520,196.557 366.123,174.159 z" cfd="128" class="building"/>
  <path id="344" d="M 84.083,409.166 L 90.993,404.991 96.627,403.288 92.606,395.485 89.221,391.477 87.091,387.080 80.234,390.397 78.726,391.121 80.075,393.904 77.060,395.318 78.105,397.377 79.004,399.158 84.083,409.166 z" cfd="128" class="building"/>
  <path id="345" d="M 130.339,171.508 L 143.895,161.534 143.717,161.292 130.161,171.267 z" cfd="128" class="barrier-hedge"/>
  <path id="346" d="M 324.680,511.212 L 351.468,502.964 355.086,514.463 352.441,515.320 340.227,519.116 340.855,521.276 331.194,524.337 329.435,525.929 324.680,511.212 z" cfd="128" class="building"/>
  <path id="347" d="M 200.676,222.038 L 190.492,229.018 184.818,219.834 175.528,226.758 167.308,216.105 186.954,201.243 200.676,222.038 z" cfd="128" class="building"/>
  <path id="348" d="M 73.706,223.541 L 83.433,216.216 86.713,220.580 88.002,219.611 91.216,223.886 90.013,224.787 100.037,238.112 108.680,231.611 108.151,230.910 110.869,228.873 117.627,237.856 112.979,241.352 113.706,242.320 107.219,247.207 106.498,246.250 96.473,253.797 73.706,223.541 z" cfd="128" class="building"/>
  <path id="349" d="M 240.973,472.329 L 243.988,474.722 257.915,468.165 257.293,465.327 240.973,472.329 z" cfd="128" class="natural-scrub"/>
  <path id="350" d="M 103.244,169.773 L 114.730,161.302 123.333,154.834 129.536,163.128 109.321,178.067 103.244,169.773 z" cfd="128" class="building"/>
  <path id="351" d="M 119.651,252.896 L 94.615,271.653 100.745,279.212 125.761,260.810 119.651,252.896 z" cfd="128" class="building"/>
  <path id="352" d="M 176.404,432.621 L 192.144,471.761 199.742,490.663 213.609,485.086 203.359,459.583 190.278,427.044 176.404,432.621 z" cfd="128" class="building"/>
  <path id="353" d="M 97.089,321.457 L 105.408,313.954 109.865,318.897 115.268,324.886 106.949,332.389 97.089,321.457 z" cfd="128" class="building"/>
  <path id="354" d="M 244.799,375.080 L 303.752,353.183 308.626,366.297 295.599,371.139 249.673,388.193 244.799,375.080 z" cfd="128" class="building"/>
  <path id="355" d="M 443.860,573.674 L 449.950,572.817 433.198,543.083 444.711,529.235 440.505,525.695 430.236,538.029 421.546,523.291 429.858,511.981 426.286,509.476 417.756,520.474 412.215,516.255 413.154,514.207 411.963,510.678 409.060,511.602 402.818,513.394 399.710,514.285 394.115,515.799 395.868,521.643 398.057,528.946 400.960,531.306 406.997,523.324 412.387,527.354 402.091,540.311 406.654,543.918 416.990,530.849 418.312,532.942 422.161,539.087 424.674,540.612 426.103,542.849 415.219,557.310 417.963,559.659 428.067,546.779 443.860,573.674 z" cfd="128" class="building"/>
  <path id="356" d="M 355.373,449.009 L 361.700,447.660 362.642,452.064 356.434,453.391 356.497,453.685 362.999,452.295 361.931,447.304 355.310,448.716 z" cfd="128" class="barrier-retaining_wall"/>
  <path id="357" d="M 239.422,75.664 L 237.643,77.033 233.431,71.601 235.223,70.209 239.422,75.664 z" cfd="128" class="building"/>
  <path id="358" d="M 133.248,88.868 L 127.150,93.331 129.310,96.290 135.409,91.826 135.232,91.584 129.376,95.870 127.569,93.396 133.425,89.110 z" cfd="128" class="barrier-fence"/>
  <path id="359" d="M 348.861,288.896 L 368.997,279.913 370.504,279.278 374.552,288.907 354.040,297.969 354.833,299.394 346.171,304.937 317.973,265.953 326.761,259.497 345.383,284.265 348.861,288.896 z" cfd="128" class="building"/>
  <path id="360" d="M 376.150,239.125 L 373.717,240.150 363.454,244.458 359.426,234.929 372.136,229.585 376.150,239.125 z" cfd="128" class="building"/>
  <path id="361" d="M 117.203,126.270 L 98.952,139.517 91.566,129.743 79.802,138.437 88.722,150.137 103.244,169.773 114.730,161.302 107.251,151.150 125.713,137.680 117.203,126.270 z" cfd="128" class="building"/>
  <path id="362" d="M 213.671,290.477 L 221.276,285.501 231.340,295.976 243.508,288.017 248.474,295.820 238.251,305.494 246.550,316.281 239.124,322.014 231.089,311.784 220.985,319.665 215.774,311.884 223.147,305.895 221.501,303.346 213.671,290.477 z" cfd="128" class="building"/>
  <path id="363" d="M 207.571,145.350 L 220.228,162.237 214.733,166.356 202.076,149.469 207.571,145.350 z" cfd="128" class="natural-sand"/>
  <path id="364" d="M 240.272,476.926 L 236.635,473.776 229.407,476.525 227.721,482.915 240.272,476.926 z" cfd="128" class="natural-scrub"/>
  <path id="365" d="M 155.121,209.125 L 157.594,207.333 158.513,208.602 172.227,198.616 171.222,197.236 182.741,188.854 160.172,157.840 150.379,164.964 156.211,173.068 162.434,181.540 163.571,180.716 167.413,185.993 158.070,192.794 157.686,193.073 156.833,191.893 150.558,196.457 151.450,197.692 148.409,199.896 155.121,209.125 z" cfd="128" class="building"/>
  <path id="366" d="M 248.265,172.699 L 247.771,174.746 247.872,176.933 248.409,181.069 249.559,185.262 250.802,188.284 252.795,191.840 254.763,194.537 257.142,197.132 259.900,199.504 263.229,201.730 267.038,203.588 269.206,204.221 271.436,204.243 271.439,203.943 269.251,203.921 267.147,203.307 263.379,201.469 260.082,199.265 257.351,196.916 254.995,194.347 253.048,191.678 251.073,188.154 249.843,185.165 248.704,181.009 248.171,176.907 248.073,174.775 248.557,172.770 z" cfd="128" class="barrier-kerb"/>
  <path id="367" d="M 307.107,429.148 L 328.010,421.556 308.626,366.297 295.599,371.139 311.497,413.352 302.530,416.780 307.107,429.148 z" cfd="128" class="building"/>
  <path id="368" d="M 409.060,511.602 L 404.880,496.563 395.536,499.257 399.710,514.285 402.818,513.394 409.060,511.602 z" cfd="128" class="building"/>
  <path id="369" d="M 321.283,391.689 L 305.907,348.452 238.398,375.470 240.402,395.006 275.020,382.171 293.469,375.180 295.169,379.132 300.995,393.002 303.449,398.925 321.283,391.689 z" cfd="128" class="building"/>
  <path id="370" d="M 276.907,468.811 L 287.415,466.284 281.516,459.772 278.593,460.918 276.907,468.811 z" cfd="128" class="natural-scrub"/>
  <path id="371" d="M 72.848,447.894 L 80.208,444.443 79.236,442.662 87.746,439.556 90.054,446.302 109.384,501.283 113.286,512.637 98.123,517.780 97.144,515.086 72.848,447.894 z" cfd="128" class="building"/>
  <path id="372" d="M 213.697,263.571 L 207.639,254.966 190.492,229.018 200.676,222.038 205.972,229.741 223.841,256.525 213.697,263.571 z" cfd="128" class="building"/>
</svg>
