<?xml version="1.0" encoding="UTF-8"?>
<svg width="379px" height="466px" viewport="0 0 379 466" version="1.1" xmlns="http://www.w3.org/2000/svg" xmlns:svg="http://www.w3.org/2000/svg">
  <desc>Document origin (bottom-left corner): lat=53.5532264, lon=10.0192452</desc>

  <circle cx="212.957" cy="280.636" r="0.100" fill="black" stroke="none" stroke-width="0.000" class="natural:tree"/>
  <circle cx="87.908" cy="107.523" r="0.100" fill="black" stroke="none" stroke-width="0.000"/>
  <circle cx="239.585" cy="452.581" r="0.100" fill="black" stroke="none" stroke-width="0.000"/>
  <circle cx="95.905" cy="269.939" r="0.100" fill="black" stroke="none" stroke-width="0.000"/>
  <circle cx="370.102" cy="406.260" r="0.100" fill="black" stroke="none" stroke-width="0.000"/>
  <circle cx="36.390" cy="256.536" r="0.100" fill="black" stroke="none" stroke-width="0.000"/>
  <circle cx="141.940" cy="100.867" r="0.100" fill="black" stroke="none" stroke-width="0.000"/>
  <circle cx="132.472" cy="164.486" r="0.100" fill="black" stroke="none" stroke-width="0.000"/>
  <circle cx="14.746" cy="21.685" r="0.100" fill="black" stroke="none" stroke-width="0.000"/>
  <circle cx="109.916" cy="121.917" r="0.100" fill="black" stroke="none" stroke-width="0.000"/>
  <circle cx="215.045" cy="458.837" r="0.100" fill="black" stroke="none" stroke-width="0.000"/>
  <circle cx="178.467" cy="46.097" r="0.100" fill="black" stroke="none" stroke-width="0.000"/>
  <circle cx="29.115" cy="14.761" r="0.100" fill="black" stroke="none" stroke-width="0.000"/>
  <circle cx="100.792" cy="266.132" r="0.100" fill="black" stroke="none" stroke-width="0.000"/>
  <circle cx="77.707" cy="303.947" r="0.100" fill="black" stroke="none" stroke-width="0.000"/>
  <circle cx="330.716" cy="243.779" r="0.100" fill="black" stroke="none" stroke-width="0.000"/>
  <circle cx="124.993" cy="146.997" r="0.100" fill="black" stroke="none" stroke-width="0.000"/>
  <circle cx="248.176" cy="232.814" r="0.100" fill="black" stroke="none" stroke-width="0.000"/>
  <circle cx="95.625" cy="60.079" r="0.100" fill="black" stroke="none" stroke-width="0.000"/>
  <circle cx="127.909" cy="157.717" r="0.100" fill="black" stroke="none" stroke-width="0.000"/>
  <circle cx="17.854" cy="15.117" r="0.100" fill="black" stroke="none" stroke-width="0.000"/>
  <circle cx="130.507" cy="103.906" r="0.100" fill="black" stroke="none" stroke-width="0.000"/>
  <circle cx="333.164" cy="265.753" r="0.100" fill="black" stroke="none" stroke-width="0.000"/>
  <circle cx="154.552" cy="215.904" r="0.100" fill="black" stroke="none" stroke-width="0.000"/>
  <circle cx="133.663" cy="240.740" r="0.100" fill="black" stroke="none" stroke-width="0.000"/>
  <circle cx="195.729" cy="165.131" r="0.100" fill="black" stroke="none" stroke-width="0.000"/>
  <circle cx="295.999" cy="438.465" r="0.100" fill="black" stroke="none" stroke-width="0.000"/>
  <circle cx="231.672" cy="281.527" r="0.100" fill="black" stroke="none" stroke-width="0.000"/>
  <circle cx="181.404" cy="51.953" r="0.100" fill="black" stroke="none" stroke-width="0.000"/>
  <circle cx="226.141" cy="199.718" r="0.100" fill="black" stroke="none" stroke-width="0.000"/>
  <circle cx="264.834" cy="269.549" r="0.100" fill="black" stroke="none" stroke-width="0.000"/>
  <circle cx="141.596" cy="85.983" r="0.100" fill="black" stroke="none" stroke-width="0.000"/>
  <circle cx="271.954" cy="411.815" r="0.100" fill="black" stroke="none" stroke-width="0.000"/>
  <circle cx="198.858" cy="209.359" r="0.100" fill="black" stroke="none" stroke-width="0.000"/>
  <circle cx="117.112" cy="252.706" r="0.100" fill="black" stroke="none" stroke-width="0.000"/>
  <circle cx="122.209" cy="162.393" r="0.100" fill="black" stroke="none" stroke-width="0.000"/>
  <circle cx="202.485" cy="51.519" r="0.100" fill="black" stroke="none" stroke-width="0.000"/>
  <circle cx="308.564" cy="46.699" r="0.100" fill="black" stroke="none" stroke-width="0.000"/>
  <circle cx="232.829" cy="288.707" r="0.100" fill="black" stroke="none" stroke-width="0.000"/>
  <circle cx="246.178" cy="450.343" r="0.100" fill="black" stroke="none" stroke-width="0.000"/>
  <circle cx="217.831" cy="286.136" r="0.100" fill="black" stroke="none" stroke-width="0.000"/>
  <circle cx="78.216" cy="296.177" r="0.100" fill="black" stroke="none" stroke-width="0.000"/>
  <circle cx="162.902" cy="79.649" r="0.100" fill="black" stroke="none" stroke-width="0.000"/>
  <circle cx="260.595" cy="254.710" r="0.100" fill="black" stroke="none" stroke-width="0.000"/>
  <circle cx="149.282" cy="193.640" r="0.100" fill="black" stroke="none" stroke-width="0.000"/>
  <circle cx="17.318" cy="26.026" r="0.100" fill="black" stroke="none" stroke-width="0.000"/>
  <circle cx="121.098" cy="139.138" r="0.100" fill="black" stroke="none" stroke-width="0.000"/>
  <circle cx="180.088" cy="48.135" r="0.100" fill="black" stroke="none" stroke-width="0.000"/>
  <circle cx="221.413" cy="457.534" r="0.100" fill="black" stroke="none" stroke-width="0.000"/>
  <circle cx="179.281" cy="47.110" r="0.100" fill="black" stroke="none" stroke-width="0.000"/>
  <circle cx="316.518" cy="31.359" r="0.100" fill="black" stroke="none" stroke-width="0.000"/>
  <circle cx="31.416" cy="18.045" r="0.100" fill="black" stroke="none" stroke-width="0.000"/>
  <circle cx="86.131" cy="277.564" r="0.100" fill="black" stroke="none" stroke-width="0.000"/>
  <circle cx="180.460" cy="150.626" r="0.100" fill="black" stroke="none" stroke-width="0.000"/>
  <circle cx="158.995" cy="145.383" r="0.100" fill="black" stroke="none" stroke-width="0.000"/>
  <circle cx="71.464" cy="288.997" r="0.100" fill="black" stroke="none" stroke-width="0.000"/>
  <circle cx="126.957" cy="149.135" r="0.100" fill="black" stroke="none" stroke-width="0.000"/>
  <circle cx="100.591" cy="66.736" r="0.100" fill="black" stroke="none" stroke-width="0.000"/>
  <circle cx="141.611" cy="178.033" r="0.100" fill="black" stroke="none" stroke-width="0.000"/>
  <circle cx="301.123" cy="407.719" r="0.100" fill="black" stroke="none" stroke-width="0.000"/>
  <circle cx="145.108" cy="123.665" r="0.100" fill="black" stroke="none" stroke-width="0.000"/>
  <circle cx="179.433" cy="45.429" r="0.100" fill="black" stroke="none" stroke-width="0.000"/>
  <circle cx="357.521" cy="332.778" r="0.100" fill="black" stroke="none" stroke-width="0.000"/>
  <circle cx="155.491" cy="215.325" r="0.100" fill="black" stroke="none" stroke-width="0.000"/>
  <circle cx="171.981" cy="439.189" r="0.100" fill="black" stroke="none" stroke-width="0.000"/>
  <circle cx="110.572" cy="258.517" r="0.100" fill="black" stroke="none" stroke-width="0.000"/>
  <circle cx="309.423" cy="435.371" r="0.100" fill="black" stroke="none" stroke-width="0.000"/>
  <circle cx="330.505" cy="259.998" r="0.100" fill="black" stroke="none" stroke-width="0.000"/>
  <circle cx="45.998" cy="261.501" r="0.100" fill="black" stroke="none" stroke-width="0.000"/>
  <circle cx="286.773" cy="191.436" r="0.100" fill="black" stroke="none" stroke-width="0.000"/>
  <circle cx="92.967" cy="71.790" r="0.100" fill="black" stroke="none" stroke-width="0.000"/>
  <circle cx="308.542" cy="396.075" r="0.100" fill="black" stroke="none" stroke-width="0.000"/>
  <circle cx="60.505" cy="70.098" r="0.100" fill="black" stroke="none" stroke-width="0.000"/>
  <circle cx="192.322" cy="435.927" r="0.100" fill="black" stroke="none" stroke-width="0.000"/>
  <circle cx="269.893" cy="268.937" r="0.100" fill="black" stroke="none" stroke-width="0.000"/>
  <circle cx="202.323" cy="223.474" r="0.100" fill="black" stroke="none" stroke-width="0.000"/>
  <circle cx="139.178" cy="236.743" r="0.100" fill="black" stroke="none" stroke-width="0.000"/>
  <circle cx="187.959" cy="161.346" r="0.100" fill="black" stroke="none" stroke-width="0.000"/>
  <circle cx="241.987" cy="268.258" r="0.100" fill="black" stroke="none" stroke-width="0.000"/>
  <circle cx="247.185" cy="274.436" r="0.100" fill="black" stroke="none" stroke-width="0.000"/>
  <circle cx="265.373" cy="381.993" r="0.100" fill="black" stroke="none" stroke-width="0.000"/>
  <circle cx="125.547" cy="70.766" r="0.100" fill="black" stroke="none" stroke-width="0.000"/>
  <circle cx="262.646" cy="278.098" r="0.100" fill="black" stroke="none" stroke-width="0.000"/>
  <circle cx="252.599" cy="449.375" r="0.100" fill="black" stroke="none" stroke-width="0.000"/>
  <circle cx="225.905" cy="266.454" r="0.100" fill="black" stroke="none" stroke-width="0.000"/>
  <circle cx="176.142" cy="171.321" r="0.100" fill="black" stroke="none" stroke-width="0.000"/>
  <circle cx="262.851" cy="275.338" r="0.100" fill="black" stroke="none" stroke-width="0.000"/>
  <circle cx="153.937" cy="200.108" r="0.100" fill="black" stroke="none" stroke-width="0.000"/>
  <circle cx="174.093" cy="208.824" r="0.100" fill="black" stroke="none" stroke-width="0.000"/>
  <circle cx="154.604" cy="138.737" r="0.100" fill="black" stroke="none" stroke-width="0.000"/>
  <circle cx="123.327" cy="161.814" r="0.100" fill="black" stroke="none" stroke-width="0.000"/>
  <circle cx="204.088" cy="196.123" r="0.100" fill="black" stroke="none" stroke-width="0.000"/>
  <circle cx="360.335" cy="246.083" r="0.100" fill="black" stroke="none" stroke-width="0.000"/>
  <circle cx="264.263" cy="398.891" r="0.100" fill="black" stroke="none" stroke-width="0.000"/>
  <circle cx="187.944" cy="59.578" r="0.100" fill="black" stroke="none" stroke-width="0.000"/>
  <circle cx="233.230" cy="454.306" r="0.100" fill="black" stroke="none" stroke-width="0.000"/>
  <circle cx="39.168" cy="355.733" r="0.100" fill="black" stroke="none" stroke-width="0.000"/>
  <circle cx="34.432" cy="15.830" r="0.100" fill="black" stroke="none" stroke-width="0.000"/>
  <circle cx="81.238" cy="281.371" r="0.100" fill="black" stroke="none" stroke-width="0.000"/>
  <circle cx="182.001" cy="154.367" r="0.100" fill="black" stroke="none" stroke-width="0.000"/>
  <circle cx="163.260" cy="151.829" r="0.100" fill="black" stroke="none" stroke-width="0.000"/>
  <circle cx="91.018" cy="273.757" r="0.100" fill="black" stroke="none" stroke-width="0.000"/>
  <circle cx="125.985" cy="148.066" r="0.100" fill="black" stroke="none" stroke-width="0.000"/>
  <circle cx="96.247" cy="116.218" r="0.100" fill="black" stroke="none" stroke-width="0.000"/>
  <circle cx="123.828" cy="99.542" r="0.100" fill="black" stroke="none" stroke-width="0.000"/>
  <circle cx="118.905" cy="364.104" r="0.100" fill="black" stroke="none" stroke-width="0.000"/>
  <circle cx="137.041" cy="171.265" r="0.100" fill="black" stroke="none" stroke-width="0.000"/>
  <circle cx="182.032" cy="55.092" r="0.100" fill="black" stroke="none" stroke-width="0.000"/>
  <circle cx="94.911" cy="95.646" r="0.100" fill="black" stroke="none" stroke-width="0.000"/>
  <circle cx="349.534" cy="364.126" r="0.100" fill="black" stroke="none" stroke-width="0.000"/>
  <circle cx="141.253" cy="118.834" r="0.100" fill="black" stroke="none" stroke-width="0.000"/>
  <circle cx="47.407" cy="269.260" r="0.100" fill="black" stroke="none" stroke-width="0.000"/>
  <circle cx="26.278" cy="14.238" r="0.100" fill="black" stroke="none" stroke-width="0.000"/>
  <circle cx="181.370" cy="44.083" r="0.100" fill="black" stroke="none" stroke-width="0.000"/>
  <circle cx="105.685" cy="262.324" r="0.100" fill="black" stroke="none" stroke-width="0.000"/>
  <circle cx="179.851" cy="142.834" r="0.100" fill="black" stroke="none" stroke-width="0.000"/>
  <circle cx="153.611" cy="451.122" r="0.100" fill="black" stroke="none" stroke-width="0.000"/>
  <circle cx="38.512" cy="11.577" r="0.100" fill="black" stroke="none" stroke-width="0.000"/>
  <circle cx="227.840" cy="455.497" r="0.100" fill="black" stroke="none" stroke-width="0.000"/>
  <circle cx="300.792" cy="180.271" r="0.100" fill="black" stroke="none" stroke-width="0.000"/>
  <circle cx="224.398" cy="296.511" r="0.100" fill="black" stroke="none" stroke-width="0.000"/>
  <circle cx="95.301" cy="112.678" r="0.100" fill="black" stroke="none" stroke-width="0.000"/>
  <circle cx="303.940" cy="398.891" r="0.100" fill="black" stroke="none" stroke-width="0.000"/>
  <circle cx="63.613" cy="74.361" r="0.100" fill="black" stroke="none" stroke-width="0.000"/>
  <circle cx="113.995" cy="81.709" r="0.100" fill="black" stroke="none" stroke-width="0.000"/>
  <circle cx="231.049" cy="235.674" r="0.100" fill="black" stroke="none" stroke-width="0.000"/>
  <circle cx="22.106" cy="21.240" r="0.100" fill="black" stroke="none" stroke-width="0.000"/>
  <circle cx="210.047" cy="232.791" r="0.100" fill="black" stroke="none" stroke-width="0.000"/>
  <circle cx="236.638" cy="283.653" r="0.100" fill="black" stroke="none" stroke-width="0.000"/>
  <circle cx="117.883" cy="99.631" r="0.100" fill="black" stroke="none" stroke-width="0.000"/>
  <circle cx="118.412" cy="59.055" r="0.100" fill="black" stroke="none" stroke-width="0.000"/>
  <circle cx="263.016" cy="273.044" r="0.100" fill="black" stroke="none" stroke-width="0.000"/>
  <circle cx="261.733" cy="265.920" r="0.100" fill="black" stroke="none" stroke-width="0.000"/>
  <circle cx="180.057" cy="177.254" r="0.100" fill="black" stroke="none" stroke-width="0.000"/>
  <circle cx="157.773" cy="214.156" r="0.100" fill="black" stroke="none" stroke-width="0.000"/>
  <circle cx="290.279" cy="440.191" r="0.100" fill="black" stroke="none" stroke-width="0.000"/>
  <circle cx="158.593" cy="206.587" r="0.100" fill="black" stroke="none" stroke-width="0.000"/>
  <circle cx="216.878" cy="233.593" r="0.100" fill="black" stroke="none" stroke-width="0.000"/>
  <circle cx="231.578" cy="255.901" r="0.100" fill="black" stroke="none" stroke-width="0.000"/>
  <circle cx="122.487" cy="148.055" r="0.100" fill="black" stroke="none" stroke-width="0.000"/>
  <circle cx="181.450" cy="54.302" r="0.100" fill="black" stroke="none" stroke-width="0.000"/>
  <circle cx="135.559" cy="82.221" r="0.100" fill="black" stroke="none" stroke-width="0.000"/>
  <circle cx="76.351" cy="285.189" r="0.100" fill="black" stroke="none" stroke-width="0.000"/>
  <circle cx="184.864" cy="158.408" r="0.100" fill="black" stroke="none" stroke-width="0.000"/>
  <circle cx="168.002" cy="159.009" r="0.100" fill="black" stroke="none" stroke-width="0.000"/>
  <circle cx="265.322" cy="445.523" r="0.100" fill="black" stroke="none" stroke-width="0.000"/>
  <circle cx="214.516" cy="183.121" r="0.100" fill="black" stroke="none" stroke-width="0.000"/>
  <circle cx="346.553" cy="393.258" r="0.100" fill="black" stroke="none" stroke-width="0.000"/>
  <circle cx="137.398" cy="114.002" r="0.100" fill="black" stroke="none" stroke-width="0.000"/>
  <circle cx="107.541" cy="45.830" r="0.100" fill="black" stroke="none" stroke-width="0.000"/>
  <circle cx="52.776" cy="275.939" r="0.100" fill="black" stroke="none" stroke-width="0.000"/>
  <circle cx="22.641" cy="24.613" r="0.100" fill="black" stroke="none" stroke-width="0.000"/>
  <circle cx="180.279" cy="52.732" r="0.100" fill="black" stroke="none" stroke-width="0.000"/>
  <circle cx="179.732" cy="146.385" r="0.100" fill="black" stroke="none" stroke-width="0.000"/>
  <circle cx="291.012" cy="407.719" r="0.100" fill="black" stroke="none" stroke-width="0.000"/>
  <circle cx="83.299" cy="103.449" r="0.100" fill="black" stroke="none" stroke-width="0.000"/>
  <circle cx="212.865" cy="269.816" r="0.100" fill="black" stroke="none" stroke-width="0.000"/>
  <circle cx="253.010" cy="243.233" r="0.100" fill="black" stroke="none" stroke-width="0.000"/>
  <circle cx="180.861" cy="53.522" r="0.100" fill="black" stroke="none" stroke-width="0.000"/>
  <circle cx="186.254" cy="241.853" r="0.100" fill="black" stroke="none" stroke-width="0.000"/>
  <circle cx="28.065" cy="365.863" r="0.100" fill="black" stroke="none" stroke-width="0.000"/>
  <circle cx="335.260" cy="258.729" r="0.100" fill="black" stroke="none" stroke-width="0.000"/>
  <circle cx="66.358" cy="77.990" r="0.100" fill="black" stroke="none" stroke-width="0.000"/>
  <circle cx="184.719" cy="184.301" r="0.100" fill="black" stroke="none" stroke-width="0.000"/>
  <circle cx="91.280" cy="56.884" r="0.100" fill="black" stroke="none" stroke-width="0.000"/>
  <circle cx="108.493" cy="73.894" r="0.100" fill="black" stroke="none" stroke-width="0.000"/>
  <circle cx="181.708" cy="50.161" r="0.100" fill="black" stroke="none" stroke-width="0.000"/>
  <circle cx="236.783" cy="262.079" r="0.100" fill="black" stroke="none" stroke-width="0.000"/>
  <circle cx="191.389" cy="51.574" r="0.100" fill="black" stroke="none" stroke-width="0.000"/>
  <circle cx="240.983" cy="313.542" r="0.100" fill="black" stroke="none" stroke-width="0.000"/>
  <circle cx="128.148" cy="244.725" r="0.100" fill="black" stroke="none" stroke-width="0.000"/>
  <circle cx="191.755" cy="163.450" r="0.100" fill="black" stroke="none" stroke-width="0.000"/>
  <circle cx="171.811" cy="164.764" r="0.100" fill="black" stroke="none" stroke-width="0.000"/>
  <circle cx="277.602" cy="443.129" r="0.100" fill="black" stroke="none" stroke-width="0.000"/>
  <circle cx="180.405" cy="44.750" r="0.100" fill="black" stroke="none" stroke-width="0.000"/>
  <circle cx="100.327" cy="80.128" r="0.100" fill="black" stroke="none" stroke-width="0.000"/>
  <circle cx="221.347" cy="192.872" r="0.100" fill="black" stroke="none" stroke-width="0.000"/>
  <circle cx="340.180" cy="76.298" r="0.100" fill="black" stroke="none" stroke-width="0.000"/>
  <circle cx="215.584" cy="53.044" r="0.100" fill="black" stroke="none" stroke-width="0.000"/>
  <circle cx="114.600" cy="338.701" r="0.100" fill="black" stroke="none" stroke-width="0.000"/>
  <circle cx="264.778" cy="395.440" r="0.100" fill="black" stroke="none" stroke-width="0.000"/>
  <circle cx="160.458" cy="211.997" r="0.100" fill="black" stroke="none" stroke-width="0.000"/>
  <circle cx="182.521" cy="51.185" r="0.100" fill="black" stroke="none" stroke-width="0.000"/>
  <circle cx="22.641" cy="27.707" r="0.100" fill="black" stroke="none" stroke-width="0.000"/>
  <circle cx="122.627" cy="248.721" r="0.100" fill="black" stroke="none" stroke-width="0.000"/>
  <circle cx="180.901" cy="49.148" r="0.100" fill="black" stroke="none" stroke-width="0.000"/>
  <circle cx="258.722" cy="447.092" r="0.100" fill="black" stroke="none" stroke-width="0.000"/>
  <circle cx="68.487" cy="49.081" r="0.100" fill="black" stroke="none" stroke-width="0.000"/>
  <circle cx="121.270" cy="162.972" r="0.100" fill="black" stroke="none" stroke-width="0.000"/>
  <path d="M 360.435,282.418 L 373.239,312.006 367.969,327.847 364.689,329.394 357.521,332.778 355.035,333.947 347.589,337.610 342.755,327.090 352.237,322.604 359.564,319.142 361.858,312.485 350.642,286.692 360.435,282.418 z" fill="black" stroke="none" stroke-width="0.000"/>
  <path d="M 127.572,150.471 L 129.179,152.797 128.583,153.298 146.769,180.794 142.497,185.436 143.383,186.894 " fill="none" stroke="black" stroke-width="0.200"/>
  <path d="M 146.463,56.940 L 151.951,64.832 153.347,66.669 154.682,68.450 159.285,74.640 174.408,62.985 161.149,45.496 146.463,56.940 z" fill="black" stroke="none" stroke-width="0.000"/>
  <path d="M 278.773,252.261 L 298.909,243.278 300.417,242.643 304.464,252.272 283.952,261.334 284.745,262.759 276.083,268.302 247.885,229.318 256.673,222.862 275.295,247.630 278.773,252.261 z" fill="black" stroke="none" stroke-width="0.000"/>
  <path d="M 118.770,106.900 L 121.342,107.702 123.385,109.216 124.893,111.520 125.336,114.626 127.022,117.286 128.881,119.056 130.210,121.450 130.388,124.555 129.502,127.305 127.816,129.609 125.601,130.845 122.943,131.557 120.013,131.201 117.619,129.966 115.847,128.363 114.868,126.593 114.518,124.555 " fill="none" stroke="black" stroke-width="0.200"/>
  <path d="M 38.645,360.419 L 37.541,358.271 33.368,350.167 22.986,355.521 21.260,356.400 22.517,358.850 26.537,366.653 28.065,365.863 38.645,360.419 z" fill="black" stroke="none" stroke-width="0.000"/>
  <path d="M 195.934,189.499 L 192.813,194.976 182.782,189.544 184.798,186.137 " fill="none" stroke="black" stroke-width="0.200"/>
  <path d="M 246.582,231.211 L 243.673,232.903 248.798,241.964 252.891,251.827 255.874,258.261 259.366,270.217 260.629,269.716 " fill="none" stroke="black" stroke-width="0.200"/>
  <path d="M 220.068,90.647 L 226.780,87.920 229.055,86.996 233.142,97.071 224.149,100.722 220.068,90.647 z" fill="black" stroke="none" stroke-width="0.000"/>
  <path d="M 139.857,99.809 L 138.145,99.575 136.062,98.752 134.666,97.761 133.417,96.403 107.065,60.001 104.645,57.096 101.662,54.235 98.614,51.919 95.195,49.871 86.480,45.318 " fill="none" stroke="black" stroke-width="0.200"/>
  <path d="M 286.495,191.547 L 286.773,191.436 287.071,191.314 " fill="none" stroke="black" stroke-width="0.200"/>
  <path d="M 85.033,172.490 L 87.506,170.697 88.425,171.966 102.139,161.981 101.134,160.601 112.654,152.218 90.084,121.205 80.291,128.329 92.346,144.905 93.483,144.081 97.325,149.357 87.598,156.437 86.745,155.257 80.470,159.821 81.362,161.057 78.321,163.261 85.033,172.490 z" fill="black" stroke="none" stroke-width="0.000"/>
  <path d="M 204.522,390.976 L 160.322,407.107 143.816,366.486 179.584,351.558 174.710,338.445 123.911,357.402 151.984,425.563 209.713,404.045 204.522,390.976 z" fill="black" stroke="none" stroke-width="0.000"/>
  <path d="M 62.358,241.096 L 70.591,251.760 59.389,260.410 51.156,249.734 62.358,241.096 z" fill="black" stroke="none" stroke-width="0.000"/>
  <path d="M 137.000,76.120 L 151.951,64.832 153.347,66.669 154.682,68.450 139.731,79.738 137.000,76.120 z" fill="black" stroke="none" stroke-width="0.000"/>
  <path d="M 233.411,17.188 L 256.449,0.000 293.004,48.992 269.967,66.179 260.590,53.611 249.004,38.094 238.318,23.767 233.411,17.188 z" fill="black" stroke="none" stroke-width="0.000"/>
  <path d="M 296.036,137.524 L 312.356,130.689 321.806,153.209 316.364,155.447 318.063,159.588 323.505,157.350 332.156,177.966 324.293,181.262 315.836,184.801 307.106,164.007 308.753,163.328 307.080,159.254 305.433,159.922 296.036,137.524 z" fill="black" stroke="none" stroke-width="0.000"/>
  <path d="M 180.918,266.621 L 191.578,259.630 " fill="none" stroke="black" stroke-width="0.200"/>
  <path d="M 288.546,218.609 L 266.790,227.181 275.295,247.630 278.773,252.261 298.909,243.278 297.434,239.760 279.911,247.942 278.138,245.370 271.532,229.407 289.842,221.704 288.546,218.609 z" fill="black" stroke="none" stroke-width="0.000"/>
  <path d="M 30.657,242.576 L 28.574,244.391 43.862,261.623 45.106,260.454 45.998,261.501 46.904,262.580 45.582,263.571 54.714,273.401 62.193,267.456 " fill="none" stroke="black" stroke-width="0.200"/>
  <path d="M 293.366,207.822 L 303.629,203.514 306.731,210.906 308.787,210.038 311.783,217.162 309.515,218.108 315.850,233.181 318.357,232.123 321.729,240.150 319.276,241.174 322.801,249.556 312.684,253.808 311.540,251.103 296.197,214.591 294.021,209.381 293.366,207.822 z" fill="black" stroke="none" stroke-width="0.000"/>
  <path d="M 137.457,108.915 L 132.134,112.856 144.632,129.810 " fill="none" stroke="black" stroke-width="0.200"/>
  <path d="M 60.162,134.752 L 73.718,124.778 " fill="none" stroke="black" stroke-width="0.200"/>
  <path d="M 110.563,32.550 L 131.472,61.237 134.646,65.578 146.125,57.107 142.872,52.699 121.857,24.212 118.015,27.062 116.335,28.309 114.748,29.500 110.563,32.550 z" fill="black" stroke="none" stroke-width="0.000"/>
  <path d="M 369.737,396.286 L 377.302,387.047 370.782,381.715 378.340,372.475 371.575,366.942 356.458,385.421 366.067,393.281 369.737,396.286 z" fill="black" stroke="none" stroke-width="0.000"/>
  <path d="M 137.551,218.331 L 143.609,226.936 125.497,240.283 119.366,232.346 137.551,218.331 z" fill="black" stroke="none" stroke-width="0.000"/>
  <path d="M 207.455,260.777 L 209.234,261.835 211.185,262.725 213.843,262.814 215.972,261.835 217.745,260.510 218.631,258.384 219.788,255.901 221.560,254.120 223.775,253.319 226.169,253.319 228.741,253.586 231.492,254.476 233.972,254.744 236.366,254.031 237.702,252.617 238.317,250.224 237.252,247.385 235.744,244.903 233.178,242.599 230.870,240.817 228.655,239.047 227.590,237.534 225.904,235.140 223.953,234.439 221.738,233.994 219.609,234.962 218.101,236.654 216.594,239.315 215.086,242.420 213.757,244.279 211.356,245.693 208.698,246.139 206.040,245.170 204.532,243.745 202.846,242.064 201.159,240.194 199.387,238.246 196.286,237.355 193.535,236.654 191.048,235.229 188.522,232.480 186.796,229.596 185.289,225.745 185.289,222.461 186.128,219.132 187.550,216.338 190.162,213.411 192.913,209.247 195.306,205.084 197.171,201.622 199.122,197.269 200.894,193.017 202.137,190.267 203.823,189.377 205.595,189.644 " fill="none" stroke="black" stroke-width="0.200"/>
  <path d="M 145.959,387.926 L 144.643,389.140 144.107,391.377 144.940,394.349 146.058,396.297 147.176,397.121 148.981,396.932 151.950,395.808 153.458,394.205 153.603,392.791 152.578,389.774 150.779,387.581 149.027,387.091 147.665,387.292 145.959,387.926 z" fill="black" stroke="none" stroke-width="0.000"/>
  <path d="M 349.034,265.753 L 361.605,259.942 358.629,253.508 363.291,251.393 367.761,249.289 368.793,251.515 372.099,249.979 375.776,257.816 367.682,261.556 370.566,267.790 344.175,280.002 341.245,273.668 337.621,275.393 329.765,278.978 326.545,272.031 329.778,270.573 330.638,269.994 331.121,269.148 331.200,268.146 330.730,266.822 333.164,265.753 336.867,264.061 338.024,263.493 346.211,259.653 349.034,265.753 z" fill="black" stroke="none" stroke-width="0.000"/>
  <path d="M 143.296,99.765 L 144.116,99.531 145.795,101.111 " fill="none" stroke="black" stroke-width="0.200"/>
  <path d="M 48.908,185.714 L 56.472,180.004 55.540,178.757 61.749,174.070 62.655,175.261 69.889,169.807 76.773,178.924 55.758,194.798 48.908,185.714 z" fill="black" stroke="none" stroke-width="0.000"/>
  <path d="M 124.374,366.853 L 143.036,406.739 161.049,398.858 156.096,371.985 154.158,357.859 124.374,366.853 z" fill="black" stroke="none" stroke-width="0.000"/>
  <path d="M 171.327,122.618 L 187.779,110.540 203.293,131.646 205.224,130.233 226.794,114.392 228.983,117.364 230.801,116.028 236.647,123.988 234.895,125.268 237.381,128.652 213.159,146.452 257.598,206.954 240.617,219.433 231.220,206.631 235.598,203.414 215.567,176.152 212.380,178.490 203.254,166.055 201.350,167.458 200.159,165.833 190.941,153.287 190.015,152.018 188.673,150.192 180.420,138.960 178.324,136.099 180.208,134.719 171.327,122.618 z" fill="black" stroke="none" stroke-width="0.000"/>
  <path d="M 237.234,314.812 L 240.983,313.542 245.215,312.129 " fill="none" stroke="black" stroke-width="0.200"/>
  <path d="M 130.588,185.403 L 120.404,192.382 114.730,183.198 105.440,190.123 97.220,179.469 116.866,164.608 130.588,185.403 z" fill="black" stroke="none" stroke-width="0.000"/>
  <path d="M 237.018,392.513 L 257.921,384.921 238.537,329.662 225.510,334.504 241.408,376.716 232.441,380.145 237.018,392.513 z" fill="black" stroke="none" stroke-width="0.000"/>
  <path d="M 43.253,26.950 L 37.460,31.570 39.557,34.197 45.343,29.578 " fill="none" stroke="black" stroke-width="0.200"/>
  <path d="M 120.188,390.409 L 107.981,363.258 107.584,362.300 109.713,361.332 100.045,347.762 93.307,353.172 75.393,360.085 80.888,374.278 94.458,368.957 106.315,395.986 120.188,390.409 z" fill="black" stroke="none" stroke-width="0.000"/>
  <path d="M 220.050,435.582 L 213.192,437.319 211.857,432.031 218.588,430.328 " fill="none" stroke="black" stroke-width="0.200"/>
  <path d="M 33.156,133.138 L 44.642,124.667 53.245,118.199 59.448,126.492 39.233,141.431 33.156,133.138 z" fill="black" stroke="none" stroke-width="0.000"/>
  <path d="M 179.384,258.940 L 175.271,252.439 " fill="none" stroke="black" stroke-width="0.200"/>
  <path d="M 169.335,39.029 L 167.557,40.398 163.344,34.965 165.136,33.574 169.335,39.029 z" fill="black" stroke="none" stroke-width="0.000"/>
  <path d="M 49.562,216.260 L 24.527,235.018 30.657,242.576 55.673,224.175 49.562,216.260 z" fill="black" stroke="none" stroke-width="0.000"/>
  <path d="M 99.897,124.210 L 100.856,121.628 99.970,118.344 96.776,114.091 95.301,112.678 90.838,108.414 82.149,100.076 73.189,89.256 68.586,77.935 65.650,72.580 61.537,66.502 57.292,69.742 " fill="none" stroke="black" stroke-width="0.200"/>
  <path d="M 246.763,60.758 L 252.688,74.662 254.712,79.426 260.763,93.620 265.385,104.473 275.404,127.995 300.448,186.850 287.408,192.182 287.071,191.314 247.055,93.408 244.661,94.388 243.431,91.382 241.837,92.039 239.337,85.928 243.047,84.414 238.901,74.261 237.287,74.918 232.857,64.087 233.075,62.183 233.954,60.769 235.568,59.701 237.584,59.445 239.224,59.990 240.587,61.237 241.367,63.051 246.763,60.758 z" fill="black" stroke="none" stroke-width="0.000"/>
  <path d="M 76.290,122.785 L 88.530,113.602 " fill="none" stroke="black" stroke-width="0.200"/>
  <path d="M 288.255,217.930 L 291.773,216.450 295.066,215.069 296.197,214.591 311.540,251.103 305.105,253.797 304.464,252.272 300.417,242.643 298.909,243.278 297.434,239.760 289.842,221.704 288.546,218.609 288.255,217.930 z" fill="black" stroke="none" stroke-width="0.000"/>
  <path d="M 37.541,358.271 L 39.168,355.733 46.177,351.959 56.817,346.192 52.030,337.409 48.505,339.001 41.138,342.664 32.429,347.250 33.368,350.167 37.541,358.271 z" fill="black" stroke="none" stroke-width="0.000"/>
  <path d="M 298.214,425.953 L 304.470,436.706 " fill="none" stroke="black" stroke-width="0.200"/>
  <path d="M 256.285,73.159 L 258.289,77.924 254.712,79.426 252.688,74.662 256.285,73.159 z" fill="black" stroke="none" stroke-width="0.000"/>
  <path d="M 29.618,158.441 L 60.162,134.752 " fill="none" stroke="black" stroke-width="0.200"/>
  <path d="M 306.063,202.490 L 303.629,203.514 293.366,207.822 289.339,198.293 302.048,192.950 306.063,202.490 z" fill="black" stroke="none" stroke-width="0.000"/>
  <path d="M 180.420,138.960 L 179.851,142.834 179.732,146.385 180.460,150.626 182.001,154.367 184.864,158.408 187.959,161.346 191.755,163.450 195.729,165.131 200.159,165.833 " fill="none" stroke="black" stroke-width="0.200"/>
  <path d="M 162.736,407.752 L 158.993,408.531 156.559,409.767 155.653,410.691 155.521,411.459 157.875,418.550 158.371,419.185 158.967,419.307 159.674,419.352 165.024,416.435 167.471,414.109 168.211,412.160 168.053,410.680 167.385,409.110 166.379,408.075 165.480,407.830 162.736,407.752 z" fill="black" stroke="none" stroke-width="0.000"/>
  <path d="M 202.889,414.175 L 158.272,422.168 151.983,410.769 166.849,402.220 181.516,393.871 191.369,392.167 201.275,390.487 202.889,414.175 z" fill="black" stroke="none" stroke-width="0.000"/>
  <path d="M 142.024,366.775 L 145.945,363.336 148.769,359.339 149.939,357.068 150.349,354.664 149.926,352.304 148.491,351.013 145.323,351.358 138.988,353.150 130.524,356.467 128.428,358.170 127.356,360.308 127.310,361.432 127.912,363.803 128.943,366.252 130.352,368.445 131.212,369.102 132.521,369.514 134.419,369.547 136.859,369.102 140.681,367.455 142.024,366.775 z" fill="black" stroke="none" stroke-width="0.000"/>
  <path d="M 112.524,371.317 L 118.905,364.104 124.096,367.198 " fill="none" stroke="black" stroke-width="0.200"/>
  <path d="M 23.819,171.699 L 33.665,164.152 36.171,167.458 45.852,180.059 35.477,187.462 23.819,171.699 z" fill="black" stroke="none" stroke-width="0.000"/>
  <path d="M 255.176,386.935 L 245.079,393.481 232.930,378.152 247.915,372.631 255.176,386.935 z" fill="black" stroke="none" stroke-width="0.000"/>
  <path d="M 87.381,301.520 L 84.849,303.301 86.621,307.331 103.060,302.299 105.295,307.854 113.482,302.143 114.804,303.323 121.596,310.014 119.182,312.251 123.229,320.723 107.517,327.613 111.756,337.632 135.662,326.533 135.337,325.721 142.102,322.415 145.058,329.049 175.219,315.602 174.849,314.767 179.101,312.585 179.914,314.422 216.211,298.258 211.132,286.859 195.010,261.222 182.796,266.610 183.325,267.568 181.679,268.280 182.757,270.796 184.410,270.094 189.178,280.280 163.316,291.357 167.422,300.396 168.282,300.062 169.267,302.199 141.302,314.800 135.635,311.138 147.419,302.032 142.928,293.394 137.209,297.902 127.547,288.117 145.686,275.249 153.059,269.260 151.412,266.710 139.827,275.538 138.974,274.035 131.951,267.389 126.548,271.408 130.291,277.130 124.221,281.772 117.958,275.449 112.741,279.612 116.497,285.256 110.995,289.219 102.736,281.638 97.267,285.779 100.798,291.557 95.495,296.010 89.147,289.420 83.103,293.728 87.381,301.520 z" fill="black" stroke="none" stroke-width="0.000"/>
  <path d="M 51.215,71.144 L 45.244,75.553 39.345,79.905 47.115,89.634 55.626,101.045 66.179,115.438 78.049,106.232 51.215,71.144 z" fill="black" stroke="none" stroke-width="0.000"/>
  <path d="M 143.583,253.842 L 151.187,248.866 161.252,259.341 173.419,251.382 178.386,259.185 168.162,268.859 176.462,279.646 169.036,285.379 161.001,275.148 150.897,283.030 145.686,275.249 153.059,269.260 151.412,266.710 143.583,253.842 z" fill="black" stroke="none" stroke-width="0.000"/>
  <path d="M 144.666,189.076 L 145.512,190.312 151.629,188.097 167.527,212.231 " fill="none" stroke="black" stroke-width="0.200"/>
  <path d="M 75.068,213.578 L 89.351,202.546 105.440,190.123 97.220,179.469 49.562,216.260 55.673,224.175 57.789,226.914 75.068,213.578 z" fill="black" stroke="none" stroke-width="0.000"/>
  <path d="M 240.085,113.290 L 240.965,110.551 247.438,107.212 250.540,108.681 284.121,190.323 271.213,195.711 244.834,131.624 246.765,130.979 240.085,113.290 z" fill="black" stroke="none" stroke-width="0.000"/>
  <path d="M 368.581,242.487 L 372.099,249.979 " fill="none" stroke="black" stroke-width="0.200"/>
  <path d="M 352.769,399.737 L 346.546,402.965 344.410,399.348 350.058,395.318 " fill="none" stroke="black" stroke-width="0.200"/>
  <path d="M 247.885,229.318 L 256.673,222.862 269.772,213.244 262.498,203.336 257.598,206.954 240.617,219.433 244.578,224.810 247.885,229.318 z" fill="black" stroke="none" stroke-width="0.000"/>
  <path d="M 189.587,247.163 L 185.845,250.836 181.506,245.738 " fill="none" stroke="black" stroke-width="0.200"/>
  <path d="M 269.246,84.692 L 312.135,52.932 317.127,49.237 338.229,77.746 339.710,79.749 282.909,121.806 270.543,105.086 279.457,98.484 269.246,84.692 z" fill="black" stroke="none" stroke-width="0.000"/>
  <path d="M 270.198,78.191 L 248.931,49.671 " fill="none" stroke="black" stroke-width="0.200"/>
  <path d="M 75.068,213.578 L 99.343,245.014 106.822,254.699 125.497,240.283 119.366,232.346 114.976,235.741 89.351,202.546 75.068,213.578 z" fill="black" stroke="none" stroke-width="0.000"/>
  <path d="M 289.591,211.251 L 291.773,216.450 295.066,215.069 292.884,209.860 289.591,211.251 z" fill="black" stroke="none" stroke-width="0.000"/>
  <path d="M 41.138,342.664 L 39.730,339.825 37.514,340.927 34.525,334.905 44.101,330.140 45.218,332.389 48.505,339.001 41.138,342.664 z" fill="black" stroke="none" stroke-width="0.000"/>
  <path d="M 106.822,254.699 L 83.446,272.466 76.066,262.848 99.343,245.014 106.822,254.699 z" fill="black" stroke="none" stroke-width="0.000"/>
  <path d="M 285.252,412.227 L 291.726,410.847 292.731,415.545 286.377,416.903 " fill="none" stroke="black" stroke-width="0.200"/>
  <path d="M 262.498,203.336 L 267.418,199.718 269.779,198.705 " fill="none" stroke="black" stroke-width="0.200"/>
  <path d="M 36.171,167.458 L 55.573,152.775 52.981,149.357 50.964,146.686 31.556,161.369 33.665,164.152 36.171,167.458 z" fill="black" stroke="none" stroke-width="0.000"/>
  <path d="M 325.176,265.575 L 323.853,262.692 291.782,277.430 286.472,279.868 288.059,283.330 286.690,283.965 290.790,292.882 291.570,292.514 292.926,295.464 294.467,294.763 314.882,339.179 313.811,339.680 315.550,343.465 314.499,343.944 318.513,352.682 319.743,352.115 321.211,355.332 324.431,353.851 345.228,344.289 349.712,342.230 347.589,337.610 342.755,327.090 342.292,326.077 325.475,333.814 321.825,325.866 320.192,326.611 318.545,323.027 325.316,319.921 322.228,313.209 322.922,312.886 319.351,305.116 318.677,305.427 315.621,298.782 308.890,301.876 303.850,290.911 329.765,278.978 326.545,272.031 329.778,270.573 330.638,269.994 331.121,269.148 331.200,268.146 330.730,266.822 329.990,265.475 329.077,264.595 328.594,264.517 327.285,264.595 325.176,265.575 z" fill="black" stroke="none" stroke-width="0.000"/>
  <path d="M 51.215,71.144 L 57.292,69.742 " fill="none" stroke="black" stroke-width="0.200"/>
  <path d="M 269.779,198.705 L 286.495,191.547 289.339,198.293 293.366,207.822 294.021,209.381 292.884,209.860 289.591,211.251 277.278,216.450 269.779,198.705 z" fill="black" stroke="none" stroke-width="0.000"/>
  <path d="M 368.581,242.487 L 360.335,246.083 335.670,257.393 335.260,258.729 335.002,259.775 336.867,264.061 " fill="none" stroke="black" stroke-width="0.200"/>
  <path d="M 240.739,349.176 L 237.784,349.655 236.335,350.345 234.788,351.480 233.994,353.028 233.928,354.920 234.854,357.981 236.680,362.801 237.916,365.150 239.834,367.232 242.486,367.822 245.514,367.544 247.716,366.575 248.821,364.716 248.748,362.723 248.199,359.896 247.306,356.523 245.792,352.460 244.410,350.122 242.895,349.232 240.739,349.176 z" fill="black" stroke="none" stroke-width="0.000"/>
  <path d="M 145.795,101.111 L 153.526,111.442 160.258,120.437 172.941,110.941 221.794,74.373 215.062,65.389 213.495,63.274 213.118,62.762 207.332,55.047 177.741,77.200 164.886,86.818 158.478,91.616 145.795,101.111 z" fill="black" stroke="none" stroke-width="0.000"/>
  <path d="M 27.000,284.822 L 16.426,273.089 24.745,265.586 30.002,271.419 35.319,277.319 27.000,284.822 z" fill="black" stroke="none" stroke-width="0.000"/>
  <path d="M 113.743,28.142 L 114.748,29.500 116.335,28.309 118.015,27.062 117.010,25.704 113.743,28.142 z" fill="black" stroke="none" stroke-width="0.000"/>
  <path d="M 91.261,112.577 L 0.000,182.341 " fill="none" stroke="black" stroke-width="0.200"/>
  <path d="M 267.805,79.794 L 244.494,47.611 " fill="none" stroke="black" stroke-width="0.200"/>
  <path d="M 117.961,459.994 L 153.611,451.122 161.354,449.208 160.290,445.400 " fill="none" stroke="black" stroke-width="0.200"/>
  <path d="M 238.986,295.587 L 235.349,297.145 228.432,300.106 " fill="none" stroke="black" stroke-width="0.200"/>
  <path d="M 63.250,52.354 L 57.272,56.728 59.256,59.445 65.233,55.070 " fill="none" stroke="black" stroke-width="0.200"/>
  <path d="M 143.609,226.936 L 137.551,218.331 120.404,192.382 130.588,185.403 135.884,193.106 153.752,219.889 143.609,226.936 z" fill="black" stroke="none" stroke-width="0.000"/>
  <path d="M 174.710,338.445 L 233.663,316.548 238.537,329.662 225.510,334.504 179.584,351.558 174.710,338.445 z" fill="black" stroke="none" stroke-width="0.000"/>
  <path d="M 120.655,164.118 L 124.603,170.419 " fill="none" stroke="black" stroke-width="0.200"/>
  <path d="M 106.315,395.986 L 122.054,435.126 129.652,454.028 143.519,448.451 133.269,422.947 120.188,390.409 106.315,395.986 z" fill="black" stroke="none" stroke-width="0.000"/>
  <path d="M 226.866,375.136 L 224.651,376.304 223.904,373.967 208.899,379.477 210.235,381.804 208.165,383.028 222.503,425.808 225.340,432.721 245.205,425.007 242.547,418.005 226.866,375.136 z" fill="black" stroke="none" stroke-width="0.000"/>
  <path d="M 155.212,133.172 L 155.834,135.754 148.937,137.268 151.510,148.923 156.277,147.921 " fill="none" stroke="black" stroke-width="0.200"/>
  <path d="M 177.285,440.781 L 185.491,438.666 186.807,443.764 180.307,445.434 " fill="none" stroke="black" stroke-width="0.200"/>
  <path d="M 173.643,221.559 L 171.137,223.474 180.951,238.268 " fill="none" stroke="black" stroke-width="0.200"/>
  <path d="M 69.723,72.469 L 64.599,64.376 83.967,51.786 90.884,54.190 " fill="none" stroke="black" stroke-width="0.200"/>
  <path d="M 188.830,398.579 L 186.833,398.713 185.107,399.537 183.731,400.706 183.183,401.674 183.110,403.400 184.353,407.797 185.180,409.800 186.073,410.491 186.760,410.758 188.618,410.491 192.269,409.177 193.300,408.008 193.578,406.773 193.234,404.502 191.442,400.294 190.483,399.025 189.637,398.668 188.830,398.579 z" fill="black" stroke="none" stroke-width="0.000"/>
  <path d="M 59.019,305.505 L 61.651,308.433 67.781,315.223 67.279,315.680 69.434,318.062 75.161,324.418 74.533,324.986 77.462,328.237 83.050,334.437 74.440,342.196 65.897,332.723 66.353,332.311 57.617,322.615 58.351,321.947 49.860,312.529 51.031,311.472 36.860,295.754 45.178,288.251 47.929,291.301 48.247,291.011 49.298,292.180 50.502,293.516 49.675,294.251 54.840,299.973 55.567,299.316 56.215,300.039 57.756,301.754 57.095,302.355 59.528,305.049 59.019,305.505 z" fill="black" stroke="none" stroke-width="0.000"/>
  <path d="M 164.710,214.346 L 167.527,212.231 168.214,211.730 171.230,216.695 " fill="none" stroke="black" stroke-width="0.200"/>
  <path d="M 315.757,409.055 L 310.884,413.162 307.584,409.233 312.755,404.891 " fill="none" stroke="black" stroke-width="0.200"/>
  <path d="M 182.283,56.918 L 174.408,62.985 159.285,74.640 158.948,74.896 157.526,75.998 161.355,80.974 162.770,82.811 187.534,63.719 182.283,56.918 z" fill="black" stroke="none" stroke-width="0.000"/>
  <path d="M 47.115,89.634 L 28.864,102.881 21.478,93.108 9.714,101.802 18.634,113.501 33.156,133.138 44.642,124.667 37.163,114.514 55.626,101.045 47.115,89.634 z" fill="black" stroke="none" stroke-width="0.000"/>
  <path d="M 74.763,157.873 L 62.781,141.977 52.981,149.357 55.573,152.775 64.943,165.276 74.763,157.873 z" fill="black" stroke="none" stroke-width="0.000"/>
  <path d="M 189.955,436.473 L 192.322,435.927 194.749,435.371 " fill="none" stroke="black" stroke-width="0.200"/>
  <path d="M 129.652,454.028 L 110.303,461.308 99.927,465.572 94.637,446.113 122.054,435.126 129.652,454.028 z" fill="black" stroke="none" stroke-width="0.000"/>
  <path d="M 27.000,284.822 L 35.319,277.319 39.776,282.262 45.178,288.251 36.860,295.754 27.000,284.822 z" fill="black" stroke="none" stroke-width="0.000"/>
  <path d="M 231.401,293.060 L 232.373,290.666 222.090,284.366 208.295,272.844 195.155,257.749 193.773,258.684 " fill="none" stroke="black" stroke-width="0.200"/>
  <path d="M 83.446,272.466 L 66.650,284.911 59.482,275.950 76.066,262.848 83.446,272.466 z" fill="black" stroke="none" stroke-width="0.000"/>
  <path d="M 251.194,355.054 L 235.819,311.817 168.309,338.834 170.313,358.371 204.931,345.536 223.381,338.545 225.080,342.497 230.906,356.367 233.360,362.289 251.194,355.054 z" fill="black" stroke="none" stroke-width="0.000"/>
  <path d="M 223.910,72.825 L 209.368,54.023 " fill="none" stroke="black" stroke-width="0.200"/>
</svg>
